<svg width="24" height="24" viewBox="0 0 24 24" fill="none" xmlns="http://www.w3.org/2000/svg">
<path d="M12 21.0005C10.05 21.0005 8.39583 20.3214 7.0375 18.963C5.67917 17.6047 5 15.9505 5 14.0005C5 12.4339 5.4625 11.0297 6.3875 9.78803C7.3125 8.54636 8.525 7.70886 10.025 7.27553C9.69167 7.19219 9.36667 7.07136 9.05 6.91303C8.73333 6.75469 8.45 6.55053 8.2 6.30053C7.65 5.75053 7.29583 5.09636 7.1375 4.33803C6.97917 3.57969 6.94167 2.80886 7.025 2.02553C7.80833 1.94219 8.57917 1.97969 9.3375 2.13803C10.0958 2.29636 10.75 2.65053 11.3 3.20053C11.6833 3.58386 11.9625 4.01719 12.1375 4.50053C12.3125 4.98386 12.425 5.49219 12.475 6.02553C12.6917 5.50886 12.9542 5.02136 13.2625 4.56303C13.5708 4.10469 13.9167 3.68386 14.3 3.30053C14.4833 3.11719 14.7167 3.02553 15 3.02553C15.2833 3.02553 15.5167 3.11719 15.7 3.30053C15.8833 3.48386 15.975 3.71719 15.975 4.00053C15.975 4.28386 15.8833 4.51719 15.7 4.70053C15.3333 5.06719 15.0083 5.47136 14.725 5.91303C14.4417 6.35469 14.2333 6.82553 14.1 7.32553C15.5667 7.79219 16.75 8.63803 17.65 9.86303C18.55 11.088 19 12.4672 19 14.0005C19 15.9505 18.3208 17.6047 16.9625 18.963C15.6042 20.3214 13.95 21.0005 12 21.0005ZM12 19.0005C13.3833 19.0005 14.5625 18.513 15.5375 17.538C16.5125 16.563 17 15.3839 17 14.0005C17 12.6172 16.5125 11.438 15.5375 10.463C14.5625 9.48803 13.3833 9.00053 12 9.00053C10.6167 9.00053 9.4375 9.48803 8.4625 10.463C7.4875 11.438 7 12.6172 7 14.0005C7 15.3839 7.4875 16.563 8.4625 17.538C9.4375 18.513 10.6167 19.0005 12 19.0005Z" fill="#CDD0D2"/>
</svg>
