<svg width="24" height="24" viewBox="0 0 24 24" fill="none" xmlns="http://www.w3.org/2000/svg">
<path d="M12 21C10.3333 21 8.91667 20.4167 7.75 19.25C6.58333 18.0833 6 16.6667 6 15C6 13.5 6.47917 12.1958 7.4375 11.0875C8.39583 9.97917 9.58333 9.30833 11 9.075V3H13V9.075C14.4333 9.30833 15.625 9.97917 16.575 11.0875C17.525 12.1958 18 13.5 18 15C18 16.6667 17.4167 18.0833 16.25 19.25C15.0833 20.4167 13.6667 21 12 21ZM12 19C12.9333 19 13.7542 18.7167 14.4625 18.15C15.1708 17.5833 15.6417 16.8667 15.875 16H8.125C8.35833 16.8667 8.82917 17.5833 9.5375 18.15C10.2458 18.7167 11.0667 19 12 19ZM8.125 14H15.875C15.6417 13.1333 15.1708 12.4167 14.4625 11.85C13.7542 11.2833 12.9333 11 12 11C11.0667 11 10.2458 11.2833 9.5375 11.85C8.82917 12.4167 8.35833 13.1333 8.125 14Z" fill="#CDD0D2"/>
</svg>
