<svg width="24" height="24" viewBox="0 0 24 24" fill="none" xmlns="http://www.w3.org/2000/svg">
<mask id="mask0_31_3384" style="mask-type:alpha" maskUnits="userSpaceOnUse" x="0" y="0" width="24" height="24">
<rect width="24" height="24" fill="#D9D9D9"/>
</mask>
<g mask="url(#mask0_31_3384)">
<path d="M4.725 20C3.725 20 2.87084 19.6417 2.1625 18.925C1.45417 18.2083 1.08334 17.3417 1.05 16.325C1.05 16.175 1.05834 16.025 1.075 15.875C1.09167 15.725 1.11667 15.575 1.15 15.425L3.25 7.025C3.48334 6.125 3.95834 5.39583 4.675 4.8375C5.39167 4.27917 6.20834 4 7.125 4H16.875C17.7917 4 18.6083 4.27917 19.325 4.8375C20.0417 5.39583 20.5167 6.125 20.75 7.025L22.85 15.425C22.8833 15.575 22.9125 15.7292 22.9375 15.8875C22.9625 16.0458 22.975 16.2 22.975 16.35C22.975 17.3667 22.6125 18.2292 21.8875 18.9375C21.1625 19.6458 20.2917 20 19.275 20C18.575 20 17.925 19.8167 17.325 19.45C16.725 19.0833 16.275 18.5833 15.975 17.95L15.275 16.5C15.1917 16.3333 15.0667 16.2083 14.9 16.125C14.7333 16.0417 14.5583 16 14.375 16H9.625C9.44167 16 9.26667 16.0417 9.1 16.125C8.93334 16.2083 8.80834 16.3333 8.725 16.5L8.025 17.95C7.725 18.5833 7.275 19.0833 6.675 19.45C6.075 19.8167 5.425 20 4.725 20ZM13.5 11C13.7833 11 14.0208 10.9042 14.2125 10.7125C14.4042 10.5208 14.5 10.2833 14.5 10C14.5 9.71667 14.4042 9.47917 14.2125 9.2875C14.0208 9.09583 13.7833 9 13.5 9C13.2167 9 12.9792 9.09583 12.7875 9.2875C12.5958 9.47917 12.5 9.71667 12.5 10C12.5 10.2833 12.5958 10.5208 12.7875 10.7125C12.9792 10.9042 13.2167 11 13.5 11ZM15.5 9C15.7833 9 16.0208 8.90417 16.2125 8.7125C16.4042 8.52083 16.5 8.28333 16.5 8C16.5 7.71667 16.4042 7.47917 16.2125 7.2875C16.0208 7.09583 15.7833 7 15.5 7C15.2167 7 14.9792 7.09583 14.7875 7.2875C14.5958 7.47917 14.5 7.71667 14.5 8C14.5 8.28333 14.5958 8.52083 14.7875 8.7125C14.9792 8.90417 15.2167 9 15.5 9ZM15.5 13C15.7833 13 16.0208 12.9042 16.2125 12.7125C16.4042 12.5208 16.5 12.2833 16.5 12C16.5 11.7167 16.4042 11.4792 16.2125 11.2875C16.0208 11.0958 15.7833 11 15.5 11C15.2167 11 14.9792 11.0958 14.7875 11.2875C14.5958 11.4792 14.5 11.7167 14.5 12C14.5 12.2833 14.5958 12.5208 14.7875 12.7125C14.9792 12.9042 15.2167 13 15.5 13ZM17.5 11C17.7833 11 18.0208 10.9042 18.2125 10.7125C18.4042 10.5208 18.5 10.2833 18.5 10C18.5 9.71667 18.4042 9.47917 18.2125 9.2875C18.0208 9.09583 17.7833 9 17.5 9C17.2167 9 16.9792 9.09583 16.7875 9.2875C16.5958 9.47917 16.5 9.71667 16.5 10C16.5 10.2833 16.5958 10.5208 16.7875 10.7125C16.9792 10.9042 17.2167 11 17.5 11ZM8.5 12.5C8.71667 12.5 8.89584 12.4292 9.0375 12.2875C9.17917 12.1458 9.25 11.9667 9.25 11.75V10.75H10.25C10.4667 10.75 10.6458 10.6792 10.7875 10.5375C10.9292 10.3958 11 10.2167 11 10C11 9.78333 10.9292 9.60417 10.7875 9.4625C10.6458 9.32083 10.4667 9.25 10.25 9.25H9.25V8.25C9.25 8.03333 9.17917 7.85417 9.0375 7.7125C8.89584 7.57083 8.71667 7.5 8.5 7.5C8.28334 7.5 8.10417 7.57083 7.9625 7.7125C7.82084 7.85417 7.75 8.03333 7.75 8.25V9.25H6.75C6.53334 9.25 6.35417 9.32083 6.2125 9.4625C6.07084 9.60417 6 9.78333 6 10C6 10.2167 6.07084 10.3958 6.2125 10.5375C6.35417 10.6792 6.53334 10.75 6.75 10.75H7.75V11.75C7.75 11.9667 7.82084 12.1458 7.9625 12.2875C8.10417 12.4292 8.28334 12.5 8.5 12.5Z" fill="#CDD0D2"/>
</g>
</svg>
