<svg width="364" height="364" viewBox="0 0 364 364" fill="none" xmlns="http://www.w3.org/2000/svg">
<g filter="url(#filter0_i_963_12124)">
<path fill-rule="evenodd" clip-rule="evenodd" d="M182.682 363.999C182.455 364 182.227 364 182 364C181.772 364 181.545 364 181.318 363.999H182.682ZM360.861 181.999C362.609 181.999 364.029 180.569 363.999 178.821C362.303 79.7717 281.469 0 182 0C82.5314 0 1.69717 79.7717 0.000465049 178.821C-0.02948 180.569 1.39059 181.999 3.13896 181.999H102.858C104.606 181.999 106.017 180.577 106.089 178.83C107.751 138.346 141.101 106.035 182 106.035C222.898 106.035 256.249 138.346 257.911 178.83C257.983 180.577 259.394 181.999 261.142 181.999H360.861Z" fill="url(#paint0_linear_963_12124)"/>
</g>
<g filter="url(#filter1_d_963_12124)">
<path fill-rule="evenodd" clip-rule="evenodd" d="M183.732 73C182.962 71.6667 181.038 71.6667 180.268 73L153.809 118.828C129.772 129.464 113 153.523 113 181.5C113 219.331 143.668 250 181.5 250C219.332 250 250 219.331 250 181.5C250 154.053 233.857 130.376 210.548 119.446L183.732 73Z" fill="white"/>
</g>
<path d="M171.276 173H168.732V160.148L160.224 173H157.68V155.72H160.224V168.56L168.732 155.72H171.276V173ZM174.625 173V155.72H176.893L183.157 168.716L189.385 155.72H191.677V172.988H189.301V161.168L183.721 173H182.581L176.989 161.168V173H174.625ZM199.347 173V158.084H193.599V155.72H207.603V158.084H201.855V173H199.347Z" fill="black"/>
<path d="M165.347 196H164.087V188.118L158.83 196H157.57V185.92H158.83V193.795L164.087 185.92H165.347V196ZM167.297 196V188.44H168.543V191.625H172.519V188.44H173.765V196H172.519V192.808H168.543V196H167.297ZM175.166 197.68V194.971C175.591 194.971 175.894 194.833 176.076 194.558C176.258 194.278 176.405 193.818 176.517 193.179C176.592 192.778 176.652 192.348 176.699 191.891C176.746 191.434 176.785 190.925 176.818 190.365C176.855 189.8 176.89 189.159 176.923 188.44H182.131V194.971H182.866V197.68H181.676V196H176.356V197.68H175.166ZM177.084 194.971H180.885V189.469H178.05C178.036 189.8 178.017 190.148 177.994 190.512C177.971 190.871 177.943 191.231 177.91 191.59C177.882 191.949 177.847 192.29 177.805 192.612C177.768 192.929 177.723 193.214 177.672 193.466C177.611 193.816 177.541 194.112 177.462 194.355C177.383 194.598 177.257 194.803 177.084 194.971ZM187.547 196.21C186.805 196.21 186.156 196.047 185.601 195.72C185.05 195.389 184.621 194.929 184.313 194.341C184.005 193.748 183.851 193.058 183.851 192.269C183.851 191.443 184.003 190.729 184.306 190.127C184.609 189.52 185.032 189.054 185.573 188.727C186.119 188.396 186.758 188.23 187.491 188.23C188.252 188.23 188.898 188.405 189.43 188.755C189.967 189.105 190.368 189.604 190.634 190.253C190.905 190.902 191.021 191.674 190.984 192.57H189.724V192.122C189.71 191.193 189.521 190.5 189.157 190.043C188.793 189.581 188.252 189.35 187.533 189.35C186.763 189.35 186.177 189.597 185.776 190.092C185.375 190.587 185.174 191.296 185.174 192.22C185.174 193.111 185.375 193.802 185.776 194.292C186.177 194.782 186.749 195.027 187.491 195.027C187.99 195.027 188.424 194.913 188.793 194.684C189.162 194.455 189.451 194.126 189.661 193.697L190.858 194.11C190.564 194.777 190.121 195.295 189.528 195.664C188.94 196.028 188.28 196.21 187.547 196.21ZM184.754 192.57V191.569H190.34V192.57H184.754ZM192.536 196L192.543 188.44H193.803V192.08L196.974 188.44H198.591L195.252 192.22L198.983 196H197.24L193.803 192.36V196H192.536ZM202.728 196.21C201.962 196.21 201.311 196.04 200.775 195.699C200.243 195.354 199.837 194.88 199.557 194.278C199.277 193.676 199.132 192.99 199.123 192.22C199.132 191.431 199.279 190.738 199.564 190.141C199.853 189.539 200.266 189.07 200.803 188.734C201.339 188.398 201.986 188.23 202.742 188.23C203.54 188.23 204.226 188.426 204.8 188.818C205.378 189.21 205.766 189.747 205.962 190.428L204.73 190.799C204.571 190.36 204.312 190.02 203.953 189.777C203.598 189.534 203.19 189.413 202.728 189.413C202.21 189.413 201.783 189.534 201.447 189.777C201.111 190.015 200.861 190.346 200.698 190.771C200.534 191.191 200.45 191.674 200.446 192.22C200.455 193.06 200.649 193.739 201.027 194.257C201.409 194.77 201.976 195.027 202.728 195.027C203.222 195.027 203.633 194.915 203.96 194.691C204.286 194.462 204.534 194.133 204.702 193.704L205.962 194.033C205.7 194.738 205.292 195.277 204.737 195.65C204.181 196.023 203.512 196.21 202.728 196.21ZM143.843 214V206.44H144.914L147.784 212.306L150.654 206.44H151.725V214H150.521V209.037L148.113 214H147.455L145.047 209.037V214H143.843ZM155.829 214.21C155.265 214.21 154.791 214.107 154.408 213.902C154.03 213.692 153.743 213.417 153.547 213.076C153.356 212.735 153.26 212.362 153.26 211.956C153.26 211.559 153.335 211.216 153.484 210.927C153.638 210.633 153.853 210.39 154.128 210.199C154.404 210.003 154.733 209.849 155.115 209.737C155.475 209.639 155.876 209.555 156.319 209.485C156.767 209.41 157.22 209.343 157.677 209.282C158.135 209.221 158.562 209.163 158.958 209.107L158.51 209.366C158.524 208.694 158.389 208.197 158.104 207.875C157.824 207.553 157.339 207.392 156.648 207.392C156.191 207.392 155.79 207.497 155.444 207.707C155.104 207.912 154.863 208.248 154.723 208.715L153.54 208.358C153.722 207.695 154.075 207.175 154.597 206.797C155.12 206.419 155.808 206.23 156.662 206.23C157.348 206.23 157.936 206.354 158.426 206.601C158.921 206.844 159.276 207.212 159.49 207.707C159.598 207.94 159.665 208.195 159.693 208.47C159.721 208.741 159.735 209.025 159.735 209.324V214H158.629V212.187L158.888 212.355C158.604 212.966 158.205 213.428 157.691 213.741C157.183 214.054 156.562 214.21 155.829 214.21ZM156.018 213.167C156.466 213.167 156.854 213.088 157.18 212.929C157.512 212.766 157.778 212.553 157.978 212.292C158.179 212.026 158.31 211.737 158.37 211.424C158.44 211.191 158.478 210.932 158.482 210.647C158.492 210.358 158.496 210.136 158.496 209.982L158.93 210.171C158.524 210.227 158.125 210.281 157.733 210.332C157.341 210.383 156.97 210.439 156.62 210.5C156.27 210.556 155.955 210.624 155.675 210.703C155.47 210.768 155.276 210.852 155.094 210.955C154.917 211.058 154.772 211.191 154.66 211.354C154.553 211.513 154.499 211.711 154.499 211.949C154.499 212.154 154.551 212.35 154.653 212.537C154.761 212.724 154.924 212.875 155.143 212.992C155.367 213.109 155.659 213.167 156.018 213.167ZM164.74 214.21C163.975 214.21 163.324 214.04 162.787 213.699C162.255 213.354 161.849 212.88 161.569 212.278C161.289 211.676 161.145 210.99 161.135 210.22C161.145 209.431 161.292 208.738 161.576 208.141C161.866 207.539 162.279 207.07 162.815 206.734C163.352 206.398 163.998 206.23 164.754 206.23C165.552 206.23 166.238 206.426 166.812 206.818C167.391 207.21 167.778 207.747 167.974 208.428L166.742 208.799C166.584 208.36 166.325 208.02 165.965 207.777C165.611 207.534 165.202 207.413 164.74 207.413C164.222 207.413 163.795 207.534 163.459 207.777C163.123 208.015 162.874 208.346 162.71 208.771C162.547 209.191 162.463 209.674 162.458 210.22C162.468 211.06 162.661 211.739 163.039 212.257C163.422 212.77 163.989 213.027 164.74 213.027C165.235 213.027 165.646 212.915 165.972 212.691C166.299 212.462 166.546 212.133 166.714 211.704L167.974 212.033C167.713 212.738 167.305 213.277 166.749 213.65C166.194 214.023 165.524 214.21 164.74 214.21ZM172.383 214.21C171.617 214.21 170.966 214.04 170.43 213.699C169.898 213.354 169.492 212.88 169.212 212.278C168.932 211.676 168.787 210.99 168.778 210.22C168.787 209.431 168.934 208.738 169.219 208.141C169.508 207.539 169.921 207.07 170.458 206.734C170.994 206.398 171.641 206.23 172.397 206.23C173.195 206.23 173.881 206.426 174.455 206.818C175.033 207.21 175.421 207.747 175.617 208.428L174.385 208.799C174.226 208.36 173.967 208.02 173.608 207.777C173.253 207.534 172.845 207.413 172.383 207.413C171.865 207.413 171.438 207.534 171.102 207.777C170.766 208.015 170.516 208.346 170.353 208.771C170.189 209.191 170.105 209.674 170.101 210.22C170.11 211.06 170.304 211.739 170.682 212.257C171.064 212.77 171.631 213.027 172.383 213.027C172.877 213.027 173.288 212.915 173.615 212.691C173.941 212.462 174.189 212.133 174.357 211.704L175.617 212.033C175.355 212.738 174.947 213.277 174.392 213.65C173.836 214.023 173.167 214.21 172.383 214.21ZM177.045 214L177.038 206.44H178.291V209.177H179.446C179.666 209.177 179.89 209.182 180.118 209.191C180.347 209.2 180.545 209.221 180.713 209.254C181.105 209.333 181.448 209.466 181.742 209.653C182.036 209.84 182.265 210.092 182.428 210.409C182.592 210.726 182.673 211.121 182.673 211.592C182.673 212.245 182.503 212.763 182.162 213.146C181.826 213.524 181.385 213.776 180.839 213.902C180.653 213.944 180.438 213.972 180.195 213.986C179.957 213.995 179.731 214 179.516 214H177.045ZM178.291 212.971H179.537C179.677 212.971 179.834 212.966 180.006 212.957C180.179 212.948 180.333 212.924 180.468 212.887C180.706 212.817 180.919 212.679 181.105 212.474C181.297 212.269 181.392 211.975 181.392 211.592C181.392 211.205 181.299 210.906 181.112 210.696C180.93 210.486 180.69 210.348 180.391 210.283C180.256 210.25 180.114 210.229 179.964 210.22C179.815 210.211 179.673 210.206 179.537 210.206H178.291V212.971ZM183.541 214V206.44H184.787V214H183.541ZM191.557 214V207.574H188.925V206.44H195.435V207.574H192.803V214H191.557ZM200.036 214.21C199.294 214.21 198.646 214.047 198.09 213.72C197.54 213.389 197.11 212.929 196.802 212.341C196.494 211.748 196.34 211.058 196.34 210.269C196.34 209.443 196.492 208.729 196.795 208.127C197.099 207.52 197.521 207.054 198.062 206.727C198.608 206.396 199.248 206.23 199.98 206.23C200.741 206.23 201.387 206.405 201.919 206.755C202.456 207.105 202.857 207.604 203.123 208.253C203.394 208.902 203.511 209.674 203.473 210.57H202.213V210.122C202.199 209.193 202.01 208.5 201.646 208.043C201.282 207.581 200.741 207.35 200.022 207.35C199.252 207.35 198.667 207.597 198.265 208.092C197.864 208.587 197.663 209.296 197.663 210.22C197.663 211.111 197.864 211.802 198.265 212.292C198.667 212.782 199.238 213.027 199.98 213.027C200.48 213.027 200.914 212.913 201.282 212.684C201.651 212.455 201.94 212.126 202.15 211.697L203.347 212.11C203.053 212.777 202.61 213.295 202.017 213.664C201.429 214.028 200.769 214.21 200.036 214.21ZM197.243 210.57V209.569H202.829V210.57H197.243ZM204.332 214V212.929C204.612 212.98 204.824 212.971 204.969 212.901C205.118 212.826 205.228 212.698 205.298 212.516C205.372 212.329 205.433 212.096 205.48 211.816C205.559 211.373 205.627 210.878 205.683 210.332C205.743 209.786 205.797 209.189 205.844 208.54C205.895 207.887 205.942 207.187 205.984 206.44H211.269V214H210.023V207.623H207.118C207.09 208.052 207.055 208.493 207.013 208.946C206.975 209.399 206.936 209.84 206.894 210.269C206.852 210.694 206.805 211.09 206.754 211.459C206.707 211.823 206.656 212.138 206.6 212.404C206.511 212.861 206.387 213.228 206.229 213.503C206.07 213.774 205.841 213.949 205.543 214.028C205.244 214.112 204.84 214.103 204.332 214ZM215.384 214.21C214.819 214.21 214.346 214.107 213.963 213.902C213.585 213.692 213.298 213.417 213.102 213.076C212.911 212.735 212.815 212.362 212.815 211.956C212.815 211.559 212.89 211.216 213.039 210.927C213.193 210.633 213.408 210.39 213.683 210.199C213.958 210.003 214.287 209.849 214.67 209.737C215.029 209.639 215.431 209.555 215.874 209.485C216.322 209.41 216.775 209.343 217.232 209.282C217.689 209.221 218.116 209.163 218.513 209.107L218.065 209.366C218.079 208.694 217.944 208.197 217.659 207.875C217.379 207.553 216.894 207.392 216.203 207.392C215.746 207.392 215.344 207.497 214.999 207.707C214.658 207.912 214.418 208.248 214.278 208.715L213.095 208.358C213.277 207.695 213.629 207.175 214.152 206.797C214.675 206.419 215.363 206.23 216.217 206.23C216.903 206.23 217.491 206.354 217.981 206.601C218.476 206.844 218.83 207.212 219.045 207.707C219.152 207.94 219.22 208.195 219.248 208.47C219.276 208.741 219.29 209.025 219.29 209.324V214H218.184V212.187L218.443 212.355C218.158 212.966 217.759 213.428 217.246 213.741C216.737 214.054 216.117 214.21 215.384 214.21ZM215.573 213.167C216.021 213.167 216.408 213.088 216.735 212.929C217.066 212.766 217.332 212.553 217.533 212.292C217.734 212.026 217.864 211.737 217.925 211.424C217.995 211.191 218.032 210.932 218.037 210.647C218.046 210.358 218.051 210.136 218.051 209.982L218.485 210.171C218.079 210.227 217.68 210.281 217.288 210.332C216.896 210.383 216.525 210.439 216.175 210.5C215.825 210.556 215.51 210.624 215.23 210.703C215.025 210.768 214.831 210.852 214.649 210.955C214.472 211.058 214.327 211.191 214.215 211.354C214.108 211.513 214.054 211.711 214.054 211.949C214.054 212.154 214.105 212.35 214.208 212.537C214.315 212.724 214.479 212.875 214.698 212.992C214.922 213.109 215.214 213.167 215.573 213.167Z" fill="black" fill-opacity="0.64"/>
<defs>
<filter id="filter0_i_963_12124" x="0" y="0" width="364" height="366" filterUnits="userSpaceOnUse" color-interpolation-filters="sRGB">
<feFlood flood-opacity="0" result="BackgroundImageFix"/>
<feBlend mode="normal" in="SourceGraphic" in2="BackgroundImageFix" result="shape"/>
<feColorMatrix in="SourceAlpha" type="matrix" values="0 0 0 0 0 0 0 0 0 0 0 0 0 0 0 0 0 0 127 0" result="hardAlpha"/>
<feOffset dy="2"/>
<feGaussianBlur stdDeviation="8"/>
<feComposite in2="hardAlpha" operator="arithmetic" k2="-1" k3="1"/>
<feColorMatrix type="matrix" values="0 0 0 0 0 0 0 0 0 0 0 0 0 0 0 0 0 0 0.1 0"/>
<feBlend mode="normal" in2="shape" result="effect1_innerShadow_963_12124"/>
</filter>
<filter id="filter1_d_963_12124" x="105" y="65" width="153" height="194" filterUnits="userSpaceOnUse" color-interpolation-filters="sRGB">
<feFlood flood-opacity="0" result="BackgroundImageFix"/>
<feColorMatrix in="SourceAlpha" type="matrix" values="0 0 0 0 0 0 0 0 0 0 0 0 0 0 0 0 0 0 127 0" result="hardAlpha"/>
<feOffset dy="1"/>
<feGaussianBlur stdDeviation="4"/>
<feComposite in2="hardAlpha" operator="out"/>
<feColorMatrix type="matrix" values="0 0 0 0 0 0 0 0 0 0 0 0 0 0 0 0 0 0 0.1 0"/>
<feBlend mode="normal" in2="BackgroundImageFix" result="effect1_dropShadow_963_12124"/>
<feBlend mode="normal" in="SourceGraphic" in2="effect1_dropShadow_963_12124" result="shape"/>
</filter>
<linearGradient id="paint0_linear_963_12124" x1="5.42402e-06" y1="182" x2="364" y2="182" gradientUnits="userSpaceOnUse">
<stop stop-color="#3BAEB1"/>
<stop offset="0.148932" stop-color="#42BC65"/>
<stop offset="0.302083" stop-color="#76C931"/>
<stop offset="0.5" stop-color="#E7DE1C"/>
<stop offset="0.708333" stop-color="#F1960D"/>
<stop offset="0.859375" stop-color="#EC5B0A"/>
<stop offset="1" stop-color="#ED280D"/>
</linearGradient>
</defs>
</svg>
