<svg width="24" height="24" viewBox="0 0 24 24" fill="none" xmlns="http://www.w3.org/2000/svg">
<mask id="mask0_13_371" style="mask-type:alpha" maskUnits="userSpaceOnUse" x="0" y="0" width="24" height="24">
<rect width="24" height="24" fill="#D9D9D9"/>
</mask>
<g mask="url(#mask0_13_371)">
<path d="M5 20C4.44772 20 4 19.5523 4 19V10C4 9.44771 4.44772 9 5 9H8C8.55228 9 9 9.44772 9 10V19C9 19.5523 8.55228 20 8 20H5ZM11 20C10.4477 20 10 19.5523 10 19V5C10 4.44772 10.4477 4 11 4H14C14.5523 4 15 4.44772 15 5V19C15 19.5523 14.5523 20 14 20H11ZM17 20C16.4477 20 16 19.5523 16 19V14C16 13.4477 16.4477 13 17 13H20C20.5523 13 21 13.4477 21 14V19C21 19.5523 20.5523 20 20 20H17Z" fill="#1C1B1F"/>
</g>
</svg>
