<svg width="24" height="24" viewBox="0 0 24 24" fill="none" xmlns="http://www.w3.org/2000/svg">
<mask id="mask0_13_369" style="mask-type:alpha" maskUnits="userSpaceOnUse" x="0" y="0" width="24" height="24">
<rect width="24" height="24" fill="#D9D9D9"/>
</mask>
<g mask="url(#mask0_13_369)">
<path d="M6.75 21C6.26875 21 5.85677 20.8237 5.51406 20.4713C5.17135 20.1187 5 19.695 5 19.2V4.8C5 4.305 5.17135 3.88125 5.51406 3.52875C5.85677 3.17625 6.26875 3 6.75 3H17.25C17.7312 3 18.1432 3.17625 18.4859 3.52875C18.8286 3.88125 19 4.305 19 4.8V19.2C19 19.695 18.8286 20.1187 18.4859 20.4713C18.1432 20.8237 17.7312 21 17.25 21H6.75ZM11.125 4.8V10.3125C11.125 10.4925 11.1943 10.6237 11.3328 10.7062C11.4714 10.7887 11.6208 10.785 11.7812 10.695L12.8531 10.0425C12.999 9.9525 13.1484 9.9075 13.3016 9.9075C13.4547 9.9075 13.6042 9.9525 13.75 10.0425L14.8219 10.695C14.9823 10.785 15.1354 10.7887 15.2812 10.7062C15.4271 10.6237 15.5 10.4925 15.5 10.3125V4.8H11.125Z" fill="#1C1B1F"/>
</g>
</svg>
