<svg width="310" height="164" viewBox="0 0 310 164" fill="none" xmlns="http://www.w3.org/2000/svg">
<g opacity="0.5">
<ellipse cx="150.038" cy="150.481" rx="46.0385" ry="13.5192" fill="url(#paint0_radial_8312_22164)" fill-opacity="0.4"/>
<ellipse cx="150.038" cy="150.481" rx="46.0385" ry="13.5192" fill="#97B5D5" fill-opacity="0.39" style="mix-blend-mode:overlay"/>
</g>
<path d="M129.299 141.952L122.509 88.2944C129.299 95.2531 169.359 95.5694 176.28 88.2944L169.359 141.952C167.211 142.913 160.038 144.835 148.536 144.835C137.033 144.835 130.918 142.913 129.299 141.952Z" fill="#1248DE" fill-opacity="0.16" stroke="#8F9BBF" stroke-opacity="0.16" stroke-width="3"/>
<ellipse cx="149.855" cy="73.1404" rx="30.2903" ry="4.1404" stroke="#96A2B3" stroke-width="3"/>
<ellipse cx="150.027" cy="88.2946" rx="27.5184" ry="4.11194" fill="#EDEFF5"/>
<ellipse cx="150.028" cy="88.6108" rx="23.0901" ry="3.16303" fill="#C1CEF1"/>
<path opacity="0.2" d="M167 139C167 138.448 159.165 138 149.5 138C139.835 138 132 138.448 132 139" stroke="#96A2B3" stroke-width="3"/>
<path d="M171.646 149.629C171.646 151.916 161.743 153.769 149.528 153.769C137.312 153.769 127.409 151.916 127.409 149.629" stroke="#96A2B3" stroke-width="3"/>
<path d="M127.409 150.283L119.346 73.9033C123.813 74.9929 136.561 77.1721 151.815 77.1721C167.069 77.1721 176.912 74.9929 179.926 73.9033L171.428 150.283C169.067 151.445 161.186 153.769 148.546 153.769C135.907 153.769 129.188 151.445 127.409 150.283Z" stroke="#96A2B3" stroke-width="3" stroke-linecap="round" stroke-linejoin="round"/>
<path d="M120 74.666L129.299 141.952C130.919 142.913 137.033 144.835 148.536 144.835C160.038 144.835 167.211 142.913 169.359 141.952L179.6 74.666" stroke="#96A2B3" stroke-width="3" stroke-linecap="round" stroke-linejoin="round"/>
<path d="M168.813 148.975L169.249 144.726C166.053 145.416 158.014 147.123 151.38 147.123C143.535 147.123 145.091 151.429 147.458 151.808C150.181 152.244 161.731 151.808 168.813 148.975Z" fill="#96A2B3"/>
<circle opacity="0.5" cx="145.288" cy="117.596" r="3.28846" fill="white"/>
<circle opacity="0.5" cx="156.981" cy="111.75" r="1.82692" fill="white"/>
<circle opacity="0.5" cx="149.673" cy="86.1731" r="1.82692" fill="white"/>
<circle opacity="0.5" cx="172.327" cy="94.2117" r="1.82692" fill="white"/>
<circle opacity="0.5" cx="127.75" cy="97.8655" r="1.82692" fill="white"/>
<circle opacity="0.5" cx="151.135" cy="135.865" r="1.82692" fill="white"/>
<circle opacity="0.5" cx="154.057" cy="102.25" r="1.82692" fill="white"/>
<path d="M20.312 68.7837L33.6578 80.6664L48.4632 70.6609L41.2861 87.0255L55.377 98.0143L37.5956 96.2455L31.4988 113.042L27.6863 95.5847L9.82746 94.9769L25.2527 85.9563L20.312 68.7837Z" fill="#E5D337"/>
<path d="M153.096 0L158.061 17.1654L175.921 16.5836L161.13 26.6106L167.203 43.4164L153.096 32.448L138.989 43.4164L145.061 26.6106L130.27 16.5836L148.13 17.1654L153.096 0Z" fill="#E5D337"/>
<path d="M231.523 20.528L230.145 38.3441L247.072 44.0703L229.702 48.2654L229.487 66.1333L220.129 50.91L203.07 56.2268L214.656 42.6232L204.328 28.0412L220.846 34.857L231.523 20.528Z" fill="#E5D337"/>
<path d="M288.968 68.7438L283.952 85.8947L299.338 94.9826L281.477 95.5124L277.588 112.953L271.565 96.1299L253.776 97.8212L267.914 86.8939L260.809 70.4981L275.57 80.5682L288.968 68.7438Z" fill="#E5D337"/>
<path d="M71.7285 21.1222L83.2182 34.7706L98.9202 27.0502L89.8408 42.145L102.171 55.02L85.0694 50.7008L76.9876 66.3784L75.498 48.6141L58.1734 45.4284L74.3538 38.7687L71.7285 21.1222Z" fill="#E5D337"/>
<defs>
<radialGradient id="paint0_radial_8312_22164" cx="0" cy="0" r="1" gradientUnits="userSpaceOnUse" gradientTransform="translate(150.038 150.481) scale(46.0385 9.5)">
<stop stop-color="white"/>
<stop offset="0.475" stop-color="#A6A6A6"/>
<stop offset="0.82" stop-color="#737373"/>
<stop offset="0.99" stop-color="#737373" stop-opacity="0"/>
</radialGradient>
</defs>
</svg>
