<svg width="24" height="24" viewBox="0 0 24 24" fill="none" xmlns="http://www.w3.org/2000/svg">
<path d="M5 21C4.71667 21 4.47917 20.9042 4.2875 20.7125C4.09583 20.5208 4 20.2833 4 20V19C3.16667 19 2.45833 18.7083 1.875 18.125C1.29167 17.5417 1 16.8333 1 16V11C1 10.1667 1.29167 9.45833 1.875 8.875C2.45833 8.29167 3.16667 8 4 8V6C4 5.16667 4.29167 4.45833 4.875 3.875C5.45833 3.29167 6.16667 3 7 3H17C17.8333 3 18.5417 3.29167 19.125 3.875C19.7083 4.45833 20 5.16667 20 6V8C20.8333 8 21.5417 8.29167 22.125 8.875C22.7083 9.45833 23 10.1667 23 11V16C23 16.8333 22.7083 17.5417 22.125 18.125C21.5417 18.7083 20.8333 19 20 19V20C20 20.2833 19.9042 20.5208 19.7125 20.7125C19.5208 20.9042 19.2833 21 19 21C18.7167 21 18.4792 20.9042 18.2875 20.7125C18.0958 20.5208 18 20.2833 18 20V19H6V20C6 20.2833 5.90417 20.5208 5.7125 20.7125C5.52083 20.9042 5.28333 21 5 21ZM4 17H20C20.2833 17 20.5208 16.9042 20.7125 16.7125C20.9042 16.5208 21 16.2833 21 16V11C21 10.7167 20.9042 10.4792 20.7125 10.2875C20.5208 10.0958 20.2833 10 20 10C19.7167 10 19.4792 10.0958 19.2875 10.2875C19.0958 10.4792 19 10.7167 19 11V15H5V11C5 10.7167 4.90417 10.4792 4.7125 10.2875C4.52083 10.0958 4.28333 10 4 10C3.71667 10 3.47917 10.0958 3.2875 10.2875C3.09583 10.4792 3 10.7167 3 11V16C3 16.2833 3.09583 16.5208 3.2875 16.7125C3.47917 16.9042 3.71667 17 4 17ZM7 13H17V11C17 10.55 17.0917 10.1417 17.275 9.775C17.4583 9.40833 17.7 9.08333 18 8.8V6C18 5.71667 17.9042 5.47917 17.7125 5.2875C17.5208 5.09583 17.2833 5 17 5H7C6.71667 5 6.47917 5.09583 6.2875 5.2875C6.09583 5.47917 6 5.71667 6 6V8.8C6.3 9.08333 6.54167 9.40833 6.725 9.775C6.90833 10.1417 7 10.55 7 11V13Z" fill="#CDD0D2"/>
</svg>
