<svg width="24" height="24" viewBox="0 0 24 24" fill="none" xmlns="http://www.w3.org/2000/svg">
<path d="M10.25 19.25V15.05L6.59997 17.15C6.18331 17.3833 5.74164 17.4417 5.27497 17.325C4.8083 17.2083 4.4583 16.9333 4.22497 16.5C3.99164 16.0833 3.9333 15.6417 4.04997 15.175C4.16664 14.7083 4.4333 14.3583 4.84997 14.125L8.49997 12L4.84997 9.9C4.4333 9.66667 4.16664 9.3125 4.04997 8.8375C3.9333 8.3625 3.99164 7.91667 4.22497 7.5C4.4583 7.08333 4.8083 6.81667 5.27497 6.7C5.74164 6.58333 6.18331 6.64167 6.59997 6.875L10.25 8.975V4.75C10.25 4.26667 10.4208 3.85417 10.7625 3.5125C11.1041 3.17083 11.5166 3 12 3C12.4833 3 12.8958 3.17083 13.2375 3.5125C13.5791 3.85417 13.75 4.26667 13.75 4.75V8.975L17.4 6.875C17.8166 6.64167 18.2583 6.58333 18.725 6.7C19.1916 6.81667 19.5416 7.08333 19.775 7.5C20.0083 7.91667 20.0625 8.3625 19.9375 8.8375C19.8125 9.3125 19.5416 9.66667 19.125 9.9L15.5 12L19.15 14.125C19.5666 14.3583 19.8333 14.7083 19.95 15.175C20.0666 15.6417 20.0083 16.0917 19.775 16.525C19.5416 16.9417 19.1916 17.2083 18.725 17.325C18.2583 17.4417 17.8166 17.3833 17.4 17.15L13.75 15.05V19.25C13.75 19.7333 13.5791 20.1458 13.2375 20.4875C12.8958 20.8292 12.4833 21 12 21C11.5166 21 11.1041 20.8292 10.7625 20.4875C10.4208 20.1458 10.25 19.7333 10.25 19.25Z" fill="#CDD0D2"/>
</svg>
