<svg width="24" height="24" viewBox="0 0 24 24" fill="none" xmlns="http://www.w3.org/2000/svg">
<path d="M12 21C10.05 21 8.39583 20.3208 7.0375 18.9625C5.67917 17.6042 5 15.95 5 14C5 12.7167 5.2125 11.425 5.6375 10.125C6.0625 8.825 6.6125 7.64583 7.2875 6.5875C7.9625 5.52917 8.71667 4.66667 9.55 4C10.3833 3.33333 11.2 3 12 3C12.8167 3 13.6375 3.33333 14.4625 4C15.2875 4.66667 16.0375 5.52917 16.7125 6.5875C17.3875 7.64583 17.9375 8.825 18.3625 10.125C18.7875 11.425 19 12.7167 19 14C19 15.95 18.3208 17.6042 16.9625 18.9625C15.6042 20.3208 13.95 21 12 21ZM12 19C13.3833 19 14.5625 18.5125 15.5375 17.5375C16.5125 16.5625 17 15.3833 17 14C17 13.05 16.8375 12.05 16.5125 11C16.1875 9.95 15.7792 8.97917 15.2875 8.0875C14.7958 7.19583 14.2583 6.45833 13.675 5.875C13.0917 5.29167 12.5333 5 12 5C11.4833 5 10.9292 5.29167 10.3375 5.875C9.74583 6.45833 9.20417 7.19583 8.7125 8.0875C8.22083 8.97917 7.8125 9.95 7.4875 11C7.1625 12.05 7 13.05 7 14C7 15.3833 7.4875 16.5625 8.4625 17.5375C9.4375 18.5125 10.6167 19 12 19ZM13 18C13.2833 18 13.5208 17.9042 13.7125 17.7125C13.9042 17.5208 14 17.2833 14 17C14 16.7167 13.9042 16.4792 13.7125 16.2875C13.5208 16.0958 13.2833 16 13 16C12.1667 16 11.4583 15.7083 10.875 15.125C10.2917 14.5417 10 13.8333 10 13C10 12.7167 9.90417 12.4792 9.7125 12.2875C9.52083 12.0958 9.28333 12 9 12C8.71667 12 8.47917 12.0958 8.2875 12.2875C8.09583 12.4792 8 12.7167 8 13C8 14.3833 8.4875 15.5625 9.4625 16.5375C10.4375 17.5125 11.6167 18 13 18Z" fill="#CDD0D2"/>
</svg>
