<svg width="24" height="24" viewBox="0 0 24 24" fill="none" xmlns="http://www.w3.org/2000/svg">
<mask id="mask0_98_3723" style="mask-type:alpha" maskUnits="userSpaceOnUse" x="0" y="0" width="24" height="24">
<rect width="24" height="24" fill="#D9D9D9"/>
</mask>
<g mask="url(#mask0_98_3723)">
<path d="M9.30773 18.7501V17.2501H20.5V18.7501H9.30773ZM9.30773 12.7501V11.2501H20.5V12.7501H9.30773ZM9.30773 6.75007V5.25012H20.5V6.75007H9.30773ZM5.16348 19.6635C4.70603 19.6635 4.31443 19.5006 3.98868 19.1749C3.66291 18.8491 3.50003 18.4575 3.50003 18.0001C3.50003 17.5426 3.66291 17.151 3.98868 16.8253C4.31443 16.4995 4.70603 16.3367 5.16348 16.3367C5.62093 16.3367 6.01253 16.4995 6.33828 16.8253C6.66403 17.151 6.82691 17.5426 6.82691 18.0001C6.82691 18.4575 6.66403 18.8491 6.33828 19.1749C6.01253 19.5006 5.62093 19.6635 5.16348 19.6635ZM5.16348 13.6635C4.70603 13.6635 4.31443 13.5006 3.98868 13.1749C3.66291 12.8491 3.50003 12.4575 3.50003 12.0001C3.50003 11.5426 3.66291 11.151 3.98868 10.8253C4.31443 10.4995 4.70603 10.3367 5.16348 10.3367C5.62093 10.3367 6.01253 10.4995 6.33828 10.8253C6.66403 11.151 6.82691 11.5426 6.82691 12.0001C6.82691 12.4575 6.66403 12.8491 6.33828 13.1749C6.01253 13.5006 5.62093 13.6635 5.16348 13.6635ZM5.16348 7.66352C4.70603 7.66352 4.31443 7.50064 3.98868 7.17489C3.66291 6.84914 3.50003 6.45754 3.50003 6.00009C3.50003 5.54264 3.66291 5.15104 3.98868 4.82529C4.31443 4.49954 4.70603 4.33667 5.16348 4.33667C5.62093 4.33667 6.01253 4.49954 6.33828 4.82529C6.66403 5.15104 6.82691 5.54264 6.82691 6.00009C6.82691 6.45754 6.66403 6.84914 6.33828 7.17489C6.01253 7.50064 5.62093 7.66352 5.16348 7.66352Z" fill="black" fill-opacity="0.64"/>
</g>
</svg>
