<svg width="24" height="24" viewBox="0 0 24 24" fill="none" xmlns="http://www.w3.org/2000/svg">
<mask id="mask0_1124_15140" style="mask-type:alpha" maskUnits="userSpaceOnUse" x="0" y="0" width="24" height="24">
<rect width="24" height="24" fill="#D9D9D9"/>
</mask>
<g mask="url(#mask0_1124_15140)">
<path d="M1 15C1 14 1.21667 13.125 1.65 12.375C2.08333 11.625 2.65 11 3.35 10.5C4.05 10 4.85 9.625 5.75 9.375C6.65 9.125 7.56667 9 8.5 9C9.43333 9 10.35 9.125 11.25 9.375C12.15 9.625 12.95 10 13.65 10.5C14.35 11 14.9167 11.625 15.35 12.375C15.7833 13.125 16 14 16 15H1ZM18 23V15C18 13.0833 17.4125 11.4542 16.2375 10.1125C15.0625 8.77083 13.4083 7.83333 11.275 7.3L11 5H16V1H18V5H23L21.35 21.55C21.3 21.95 21.1208 22.2917 20.8125 22.575C20.5042 22.8583 20.1333 23 19.7 23H18ZM1 19V17H16V19H1ZM2 23C1.71667 23 1.47917 22.9042 1.2875 22.7125C1.09583 22.5208 1 22.2833 1 22V21H16V22C16 22.2833 15.9042 22.5208 15.7125 22.7125C15.5208 22.9042 15.2833 23 15 23H2Z" fill="#1F1F1F"/>
</g>
</svg>
