<svg width="24" height="24" viewBox="0 0 24 24" fill="none" xmlns="http://www.w3.org/2000/svg">
<path d="M12 21.9995C9.76667 21.9995 7.875 21.2245 6.325 19.6745C4.775 18.1245 4 16.2329 4 13.9995C4 12.1162 4.55833 10.3079 5.675 8.57452C6.79167 6.84118 8.325 5.32452 10.275 4.02452C10.6417 3.77452 11.0208 3.76202 11.4125 3.98702C11.8042 4.21202 12 4.54952 12 4.99952V6.29952C12 6.86618 12.1958 7.34118 12.5875 7.72452C12.9792 8.10785 13.4583 8.29952 14.025 8.29952C14.3083 8.29952 14.5792 8.23702 14.8375 8.11202C15.0958 7.98702 15.325 7.80785 15.525 7.57452C15.6583 7.40785 15.8292 7.30368 16.0375 7.26202C16.2458 7.22035 16.4417 7.26618 16.625 7.39952C17.675 8.14952 18.5 9.10785 19.1 10.2745C19.7 11.4412 20 12.6829 20 13.9995C20 16.2329 19.225 18.1245 17.675 19.6745C16.125 21.2245 14.2333 21.9995 12 21.9995ZM6 13.9995C6 14.8662 6.175 15.687 6.525 16.462C6.875 17.237 7.375 17.9162 8.025 18.4995C8.00833 18.4162 8 18.3412 8 18.2745V18.0495C8 17.5162 8.1 17.0162 8.3 16.5495C8.5 16.0829 8.79167 15.6579 9.175 15.2745L12 12.4995L14.825 15.2745C15.2083 15.6579 15.5 16.0829 15.7 16.5495C15.9 17.0162 16 17.5162 16 18.0495V18.2745C16 18.3412 15.9917 18.4162 15.975 18.4995C16.625 17.9162 17.125 17.237 17.475 16.462C17.825 15.687 18 14.8662 18 13.9995C18 13.1662 17.8458 12.3787 17.5375 11.637C17.2292 10.8954 16.7833 10.2329 16.2 9.64952C15.8667 9.86618 15.5167 10.0287 15.15 10.137C14.7833 10.2454 14.4083 10.2995 14.025 10.2995C12.9917 10.2995 12.0958 9.95785 11.3375 9.27452C10.5792 8.59118 10.1417 7.74952 10.025 6.74952C8.725 7.84952 7.72917 9.02035 7.0375 10.262C6.34583 11.5037 6 12.7495 6 13.9995ZM12 15.2995L10.575 16.6995C10.3917 16.8829 10.25 17.0912 10.15 17.3245C10.05 17.5579 10 17.7995 10 18.0495C10 18.5829 10.1958 19.0412 10.5875 19.4245C10.9792 19.8079 11.45 19.9995 12 19.9995C12.55 19.9995 13.0208 19.8079 13.4125 19.4245C13.8042 19.0412 14 18.5829 14 18.0495C14 17.7829 13.95 17.537 13.85 17.312C13.75 17.087 13.6083 16.8829 13.425 16.6995L12 15.2995Z" fill="#CDD0D2"/>
</svg>
