<svg width="24" height="24" viewBox="0 0 24 24" fill="none" xmlns="http://www.w3.org/2000/svg">
<path d="M11 19H10C9.71667 19 9.47917 18.9042 9.2875 18.7125C9.09583 18.5208 9 18.2833 9 18C9 17.7167 9.09583 17.4792 9.2875 17.2875C9.47917 17.0958 9.71667 17 10 17H11V14.9C9.68333 14.6667 8.60417 14.0375 7.7625 13.0125C6.92083 11.9875 6.5 10.8 6.5 9.45C6.5 7.93333 7.0375 6.64583 8.1125 5.5875C9.1875 4.52917 10.4833 4 12 4C13.5167 4 14.8125 4.52917 15.8875 5.5875C16.9625 6.64583 17.5 7.93333 17.5 9.45C17.5 10.8 17.0792 11.9875 16.2375 13.0125C15.3958 14.0375 14.3167 14.6667 13 14.9V17H14C14.2833 17 14.5208 17.0958 14.7125 17.2875C14.9042 17.4792 15 17.7167 15 18C15 18.2833 14.9042 18.5208 14.7125 18.7125C14.5208 18.9042 14.2833 19 14 19H13V20C13 20.2833 12.9042 20.5208 12.7125 20.7125C12.5208 20.9042 12.2833 21 12 21C11.7167 21 11.4792 20.9042 11.2875 20.7125C11.0958 20.5208 11 20.2833 11 20V19ZM12 13C12.9667 13 13.7917 12.6583 14.475 11.975C15.1583 11.2917 15.5 10.4667 15.5 9.5C15.5 8.53333 15.1583 7.70833 14.475 7.025C13.7917 6.34167 12.9667 6 12 6C11.0333 6 10.2083 6.34167 9.525 7.025C8.84167 7.70833 8.5 8.53333 8.5 9.5C8.5 10.4667 8.84167 11.2917 9.525 11.975C10.2083 12.6583 11.0333 13 12 13Z" fill="#CDD0D2"/>
</svg>
