<svg id="vector" xmlns="http://www.w3.org/2000/svg" width="24" height="24" viewBox="0 0 24 24"><path fill="#000000FF" d="M4,18c-0.6,1.4 -1.4,2.8 -1.6,4.2l0.8,-0.1c1.3,-3.7 2.4,-6.3 5,-9.4c1.9,-2.4 3.9,-4.2 6.6,-5.7c1.4,-0.8 3.2,-1.7 4.8,-1.9C20,5 20.4,5 20.9,5.1C16.5,6.6 12.2,9.2 9,13.2c-1.3,1.6 -2.2,3.1 -3.3,5l1.5,0.3l-0.8,-0.4l2.8,-0.4c-1,-0.4 -2.1,-0.2 -2.4,-0.6c2.9,-0.1 5.3,-0.8 7,-2c-0.6,-0.1 -1.3,-0.2 -1.7,-0.3c2.8,-0.9 3.3,-1.7 5.3,-3.3c-2,0.5 -3.9,0.3 -4.7,-1c4.7,0.4 7.8,-1 8.8,-4.2c0.1,-0.4 0.1,-0.7 0.1,-1.1c-0.4,-2.4 -4.5,-3.1 -5.9,-1.2c-0.3,0.4 -0.7,0.7 -1,1.2l1.3,-2.4c-3.5,1.2 -3.8,2.5 -5.6,6.4c-0.6,-0.3 -0.7,-2 0.1,-2.9c-3.4,2.2 -5,5.5 -5.2,9.1C4.6,14 5.1,12.4 6,10.6c-1.3,1.3 -2.1,2.8 -1.8,4.9l-0.6,-0.3l0.3,1.1L3,16L4,18L4,18z" fill-rule="evenodd" id="path_0"/></svg>