<svg width="24" height="24" viewBox="0 0 24 24" fill="none" xmlns="http://www.w3.org/2000/svg">
<mask id="mask0_68_2152" style="mask-type:alpha" maskUnits="userSpaceOnUse" x="0" y="0" width="24" height="24">
<rect width="24" height="24" fill="#D9D9D9"/>
</mask>
<g mask="url(#mask0_68_2152)">
<path d="M5.44999 21.3999L2.59999 18.5499C2.21666 18.1666 2.02499 17.6999 2.02499 17.1499C2.02499 16.5999 2.21666 16.1332 2.59999 15.7499L15.75 2.5999C16.1333 2.21657 16.6 2.0249 17.15 2.0249C17.7 2.0249 18.1667 2.21657 18.55 2.5999L21.4 5.4499C21.7833 5.83324 21.975 6.2999 21.975 6.8499C21.975 7.3999 21.7833 7.86657 21.4 8.2499L8.24999 21.3999C7.86666 21.7832 7.39999 21.9749 6.84999 21.9749C6.29999 21.9749 5.83333 21.7832 5.44999 21.3999ZM12.7 18.3499L18.35 12.6999L21.4 15.7499C21.7833 16.1332 21.975 16.5999 21.975 17.1499C21.975 17.6999 21.7833 18.1666 21.4 18.5499L18.55 21.3999C18.1667 21.7832 17.7 21.9749 17.15 21.9749C16.6 21.9749 16.1333 21.7832 15.75 21.3999L12.7 18.3499ZM12 14.9999C12.2833 14.9999 12.5208 14.9041 12.7125 14.7124C12.9042 14.5207 13 14.2832 13 13.9999C13 13.7166 12.9042 13.4791 12.7125 13.2874C12.5208 13.0957 12.2833 12.9999 12 12.9999C11.7167 12.9999 11.4792 13.0957 11.2875 13.2874C11.0958 13.4791 11 13.7166 11 13.9999C11 14.2832 11.0958 14.5207 11.2875 14.7124C11.4792 14.9041 11.7167 14.9999 12 14.9999ZM9.99999 12.9999C10.2833 12.9999 10.5208 12.9041 10.7125 12.7124C10.9042 12.5207 11 12.2832 11 11.9999C11 11.7166 10.9042 11.4791 10.7125 11.2874C10.5208 11.0957 10.2833 10.9999 9.99999 10.9999C9.71666 10.9999 9.47916 11.0957 9.28749 11.2874C9.09583 11.4791 8.99999 11.7166 8.99999 11.9999C8.99999 12.2832 9.09583 12.5207 9.28749 12.7124C9.47916 12.9041 9.71666 12.9999 9.99999 12.9999ZM14 12.9999C14.2833 12.9999 14.5208 12.9041 14.7125 12.7124C14.9042 12.5207 15 12.2832 15 11.9999C15 11.7166 14.9042 11.4791 14.7125 11.2874C14.5208 11.0957 14.2833 10.9999 14 10.9999C13.7167 10.9999 13.4792 11.0957 13.2875 11.2874C13.0958 11.4791 13 11.7166 13 11.9999C13 12.2832 13.0958 12.5207 13.2875 12.7124C13.4792 12.9041 13.7167 12.9999 14 12.9999ZM5.62499 11.2749L2.59999 8.2499C2.21666 7.86657 2.02499 7.3999 2.02499 6.8499C2.02499 6.2999 2.21666 5.83324 2.59999 5.4499L5.44999 2.5999C5.83333 2.21657 6.29999 2.0249 6.84999 2.0249C7.39999 2.0249 7.86666 2.21657 8.24999 2.5999L11.3 5.6499L5.62499 11.2749ZM12 10.9999C12.2833 10.9999 12.5208 10.9041 12.7125 10.7124C12.9042 10.5207 13 10.2832 13 9.9999C13 9.71657 12.9042 9.47907 12.7125 9.2874C12.5208 9.09574 12.2833 8.9999 12 8.9999C11.7167 8.9999 11.4792 9.09574 11.2875 9.2874C11.0958 9.47907 11 9.71657 11 9.9999C11 10.2832 11.0958 10.5207 11.2875 10.7124C11.4792 10.9041 11.7167 10.9999 12 10.9999Z" fill="#CDD0D2"/>
</g>
</svg>
