<svg width="32" height="32" viewBox="0 0 32 32" fill="none" xmlns="http://www.w3.org/2000/svg">
<circle cx="16" cy="16" r="16" fill="#FF3A3A"/>
<mask id="mask0_374_1107" style="mask-type:alpha" maskUnits="userSpaceOnUse" x="5" y="5" width="22" height="22">
<rect x="5.3335" y="5.3335" width="21.3333" height="21.3333" fill="#D9D9D9"/>
</mask>
<g mask="url(#mask0_374_1107)">
<path d="M21.4902 13.9651C22.1438 13.9651 22.6993 13.7399 23.1569 13.2896C23.6144 12.8393 23.8431 12.2926 23.8431 11.6493C23.8431 11.006 23.6144 10.4592 23.1569 10.0089C22.6993 9.55864 22.1438 9.3335 21.4902 9.3335C20.8366 9.3335 20.281 9.55864 19.8235 10.0089C19.366 10.4592 19.1373 11.006 19.1373 11.6493C19.1373 12.2926 19.366 12.8393 19.8235 13.2896C20.281 13.7399 20.8366 13.9651 21.4902 13.9651ZM10.5098 13.9651C11.1634 13.9651 11.719 13.7399 12.1765 13.2896C12.634 12.8393 12.8627 12.2926 12.8627 11.6493C12.8627 11.006 12.634 10.4592 12.1765 10.0089C11.719 9.55864 11.1634 9.3335 10.5098 9.3335C9.85621 9.3335 9.30065 9.55864 8.84314 10.0089C8.38562 10.4592 8.15686 11.006 8.15686 11.6493C8.15686 12.2926 8.38562 12.8393 8.84314 13.2896C9.30065 13.7399 9.85621 13.9651 10.5098 13.9651ZM16 24.0002C17.7778 24.0002 19.3922 23.5048 20.8431 22.5142C22.2941 21.5236 23.3464 20.2177 24 18.5967H8C8.65359 20.2177 9.70588 21.5236 11.1569 22.5142C12.6078 23.5048 14.2222 24.0002 16 24.0002Z" fill="white"/>
</g>
</svg>
