<svg width="32" height="32" viewBox="0 0 32 32" fill="none" xmlns="http://www.w3.org/2000/svg">
<circle cx="16" cy="16" r="16" fill="#FF3A3A"/>
<mask id="mask0_374_1112" style="mask-type:alpha" maskUnits="userSpaceOnUse" x="5" y="5" width="22" height="22">
<rect x="5.3335" y="5.3335" width="21.3333" height="21.3333" fill="#D9D9D9"/>
</mask>
<g mask="url(#mask0_374_1112)">
<path d="M23.1569 13.2896C22.6993 13.7399 22.1438 13.9651 21.4902 13.9651C20.8366 13.9651 20.281 13.7399 19.8235 13.2896C19.366 12.8393 19.1373 12.2926 19.1373 11.6493C19.1373 11.006 19.366 10.4592 19.8235 10.0089C20.281 9.55864 20.8366 9.3335 21.4902 9.3335C22.1438 9.3335 22.6993 9.55864 23.1569 10.0089C23.6144 10.4592 23.8431 11.006 23.8431 11.6493C23.8431 12.2926 23.6144 12.8393 23.1569 13.2896Z" fill="white"/>
<path d="M12.1765 13.2896C11.719 13.7399 11.1634 13.9651 10.5098 13.9651C9.85621 13.9651 9.30065 13.7399 8.84314 13.2896C8.38562 12.8393 8.15686 12.2926 8.15686 11.6493C8.15686 11.006 8.38562 10.4592 8.84314 10.0089C9.30065 9.55864 9.85621 9.3335 10.5098 9.3335C11.1634 9.3335 11.719 9.55864 12.1765 10.0089C12.634 10.4592 12.8627 11.006 12.8627 11.6493C12.8627 12.2926 12.634 12.8393 12.1765 13.2896Z" fill="white"/>
<path d="M20.8431 22.5142C19.3922 23.5048 17.7778 24.0002 16 24.0002C14.2222 24.0002 12.6078 23.5048 11.1569 22.5142C9.70588 21.5236 8.65359 20.2177 8 18.5967H10.5882C11.1634 19.5487 11.9281 20.3013 12.8824 20.8545C13.8366 21.4078 14.8758 21.6844 16 21.6844C17.1242 21.6844 18.1634 21.4078 19.1176 20.8545C20.0719 20.3013 20.8366 19.5487 21.4118 18.5967H24C23.3464 20.2177 22.2941 21.5236 20.8431 22.5142Z" fill="white"/>
</g>
</svg>
