<svg width="32" height="32" viewBox="0 0 32 32" fill="none" xmlns="http://www.w3.org/2000/svg">
<circle cx="16" cy="16" r="16" fill="#FF3A3A"/>
<mask id="mask0_374_1116" style="mask-type:alpha" maskUnits="userSpaceOnUse" x="5" y="5" width="22" height="22">
<rect x="5.3335" y="5.3335" width="21.3333" height="21.3333" fill="#D9D9D9"/>
</mask>
<g mask="url(#mask0_374_1116)">
<path d="M23.1569 13.3196C22.6993 13.7733 22.1438 14.0002 21.4902 14.0002C20.8366 14.0002 20.281 13.7733 19.8235 13.3196C19.366 12.8659 19.1373 12.315 19.1373 11.6668C19.1373 11.0187 19.366 10.4678 19.8235 10.0141C20.281 9.56035 20.8366 9.3335 21.4902 9.3335C22.1438 9.3335 22.6993 9.56035 23.1569 10.0141C23.6144 10.4678 23.8431 11.0187 23.8431 11.6668C23.8431 12.315 23.6144 12.8659 23.1569 13.3196Z" fill="white"/>
<path d="M12.1765 13.3196C11.719 13.7733 11.1634 14.0002 10.5098 14.0002C9.85621 14.0002 9.30065 13.7733 8.84314 13.3196C8.38562 12.8659 8.15686 12.315 8.15686 11.6668C8.15686 11.0187 8.38562 10.4678 8.84314 10.0141C9.30065 9.56035 9.85621 9.3335 10.5098 9.3335C11.1634 9.3335 11.719 9.56035 12.1765 10.0141C12.634 10.4678 12.8627 11.0187 12.8627 11.6668C12.8627 12.315 12.634 12.8659 12.1765 13.3196Z" fill="white"/>
<path d="M11.1569 19.3863C12.6078 18.3881 14.2222 17.8891 16 17.8891C17.7778 17.8891 19.3922 18.3881 20.8431 19.3863C22.2941 20.3844 23.3464 21.7002 24 23.3335H8C8.65359 21.7002 9.70588 20.3844 11.1569 19.3863Z" fill="white"/>
</g>
</svg>
