<svg width="40" height="40" viewBox="0 0 40 40" fill="none" xmlns="http://www.w3.org/2000/svg">
<path fill-rule="evenodd" clip-rule="evenodd" d="M25.5981 0.904646C22.1885 2.59188 20.6058 4.47286 18.1384 9.77078C17.3459 11.4725 16.6049 12.8955 16.4917 12.9331C15.7534 13.1779 15.453 9.89577 16.0776 8.40793C16.581 7.20813 16.5758 7.20445 15.4969 7.99465C10.203 11.8732 6.84582 17.6964 6.10582 24.2843C5.92971 25.8509 5.92058 25.8669 5.61422 25.1437C5.07131 23.8631 5.39197 20.7755 6.29995 18.5404C6.73285 17.4749 7.04957 16.5656 7.00394 16.5199C6.82116 16.338 5.0718 18.8857 4.44157 20.2519C3.91987 21.3822 3.74696 22.1882 3.66457 23.8734C3.56122 25.9926 3.54617 26.0378 2.99019 25.8988C2.45295 25.7645 2.43445 25.8003 2.65127 26.5537C2.98575 27.7142 2.95491 27.7773 2.14091 27.5993C1.73392 27.5104 1.40092 27.5043 1.40092 27.586C1.40092 27.6676 1.8057 28.5327 2.30026 29.5085C3.32886 31.5378 3.43591 30.8274 1.32963 35.9483C0.718637 37.4339 0.149579 38.9534 0.0649722 39.3247C-0.0785875 39.9565 -0.035668 40 0.73023 40H1.54867L2.98081 36.378C5.55132 29.8759 7.81349 25.832 11.4188 21.2939C14.9219 16.8844 18.3659 13.5349 22.0446 10.9598C24.2526 9.41423 29.2944 6.6318 31.2357 5.88776C34.0501 4.80878 38.6961 3.96529 38.2987 4.60546C38.2267 4.72161 37.3042 5.1199 36.2492 5.49045C30.1432 7.63466 23.2148 11.8605 18.3674 16.3972C14.71 19.8198 10.3919 25.4526 7.58434 30.4628L6.80537 31.8526L7.61814 32.0157C8.06509 32.1055 8.6529 32.2315 8.92423 32.2959C9.40005 32.4091 9.40129 32.4 8.96049 32.0478C8.53055 31.7043 8.55251 31.6746 9.33049 31.5439C10.5887 31.3325 13.3326 30.9202 13.6109 30.9006C14.1649 30.8615 12.7799 30.4738 11.5142 30.3137C8.55941 29.94 8.63021 29.579 11.701 29.3619C12.8983 29.2772 14.9836 28.9261 16.3346 28.5815C18.8123 27.9492 23.3542 25.9818 23.3542 25.5403C23.3542 25.4092 22.7437 25.226 21.9975 25.1332C20.5168 24.949 20.2588 24.6764 21.3192 24.4171C22.9191 24.0259 25.7629 22.4011 28.0414 20.5766C29.3894 19.4971 30.5524 18.5171 30.6257 18.3992C30.7004 18.2786 29.7456 18.2445 28.4521 18.3214C26.9962 18.4078 25.6775 18.3467 24.8776 18.1556C23.6588 17.8646 21.6275 16.6499 21.6275 16.2123C21.6275 16.0961 23.3204 15.9392 25.3892 15.8633C29.4686 15.7143 31.1274 15.3771 33.6515 14.1837C37.206 12.5036 39.9913 8.68516 40 5.48063C40.0059 3.33052 39.1598 2.13317 36.8034 0.956213C35.2613 0.186142 34.877 0.0972497 33.1034 0.100442C30.603 0.105108 29.2194 0.693956 27.5004 2.48555L26.2584 3.78013L27.2794 1.87706C28.4942 -0.387482 28.3628 -0.46336 25.5981 0.904646Z" fill="#34C759"/>
</svg>
