<svg width="24" height="24" viewBox="0 0 24 24" fill="none" xmlns="http://www.w3.org/2000/svg">
<path d="M20 5V9C20 9.28333 19.9042 9.52083 19.7125 9.7125C19.5208 9.90417 19.2833 10 19 10C18.7167 10 18.4792 9.90417 18.2875 9.7125C18.0958 9.52083 18 9.28333 18 9V7.425L14.025 11.375C14.3417 11.8417 14.5833 12.3375 14.75 12.8625C14.9167 13.3875 15 13.9333 15 14.5C15 16.0333 14.4667 17.3333 13.4 18.4C12.3333 19.4667 11.0333 20 9.5 20C7.96667 20 6.66667 19.4667 5.6 18.4C4.53333 17.3333 4 16.0333 4 14.5C4 12.9667 4.53333 11.6667 5.6 10.6C6.66667 9.53333 7.96667 9 9.5 9C10.05 9 10.5917 9.07917 11.125 9.2375C11.6583 9.39583 12.15 9.64167 12.6 9.975L16.575 6H15C14.7167 6 14.4792 5.90417 14.2875 5.7125C14.0958 5.52083 14 5.28333 14 5C14 4.71667 14.0958 4.47917 14.2875 4.2875C14.4792 4.09583 14.7167 4 15 4H19C19.2833 4 19.5208 4.09583 19.7125 4.2875C19.9042 4.47917 20 4.71667 20 5ZM9.5 11C8.53333 11 7.70833 11.3417 7.025 12.025C6.34167 12.7083 6 13.5333 6 14.5C6 15.4667 6.34167 16.2917 7.025 16.975C7.70833 17.6583 8.53333 18 9.5 18C10.4667 18 11.2917 17.6583 11.975 16.975C12.6583 16.2917 13 15.4667 13 14.5C13 13.5333 12.6583 12.7083 11.975 12.025C11.2917 11.3417 10.4667 11 9.5 11Z" fill="#CDD0D2"/>
</svg>
