<svg width="25" height="24" viewBox="0 0 25 24" fill="none" xmlns="http://www.w3.org/2000/svg">
<mask id="mask0_337_7836" style="mask-type:alpha" maskUnits="userSpaceOnUse" x="0" y="0" width="25" height="24">
<rect x="0.5" width="24" height="24" fill="#D9D9D9"/>
</mask>
<g mask="url(#mask0_337_7836)">
<path d="M11.5 22.9498V20.9498C9.41667 20.7165 7.62917 19.854 6.1375 18.3623C4.64583 16.8706 3.78333 15.0831 3.55 12.9998H1.55V10.9998H3.55C3.78333 8.91647 4.64583 7.12897 6.1375 5.6373C7.62917 4.14564 9.41667 3.28314 11.5 3.0498V1.0498H13.5V3.0498C15.5833 3.28314 17.3708 4.14564 18.8625 5.6373C20.3542 7.12897 21.2167 8.91647 21.45 10.9998H23.45V12.9998H21.45C21.2167 15.0831 20.3542 16.8706 18.8625 18.3623C17.3708 19.854 15.5833 20.7165 13.5 20.9498V22.9498H11.5ZM12.5 18.9998C14.4333 18.9998 16.0833 18.3165 17.45 16.9498C18.8167 15.5831 19.5 13.9331 19.5 11.9998C19.5 10.0665 18.8167 8.41647 17.45 7.0498C16.0833 5.68314 14.4333 4.9998 12.5 4.9998C10.5667 4.9998 8.91667 5.68314 7.55 7.0498C6.18333 8.41647 5.5 10.0665 5.5 11.9998C5.5 13.9331 6.18333 15.5831 7.55 16.9498C8.91667 18.3165 10.5667 18.9998 12.5 18.9998ZM12.5 15.9998C11.4 15.9998 10.4583 15.6081 9.675 14.8248C8.89167 14.0415 8.5 13.0998 8.5 11.9998C8.5 10.8998 8.89167 9.95814 9.675 9.1748C10.4583 8.39147 11.4 7.9998 12.5 7.9998C13.6 7.9998 14.5417 8.39147 15.325 9.1748C16.1083 9.95814 16.5 10.8998 16.5 11.9998C16.5 13.0998 16.1083 14.0415 15.325 14.8248C14.5417 15.6081 13.6 15.9998 12.5 15.9998ZM12.5 13.9998C13.05 13.9998 13.5208 13.804 13.9125 13.4123C14.3042 13.0206 14.5 12.5498 14.5 11.9998C14.5 11.4498 14.3042 10.979 13.9125 10.5873C13.5208 10.1956 13.05 9.9998 12.5 9.9998C11.95 9.9998 11.4792 10.1956 11.0875 10.5873C10.6958 10.979 10.5 11.4498 10.5 11.9998C10.5 12.5498 10.6958 13.0206 11.0875 13.4123C11.4792 13.804 11.95 13.9998 12.5 13.9998Z" fill="black" fill-opacity="0.64"/>
</g>
</svg>
