<svg width="24" height="24" viewBox="0 0 24 24" fill="none" xmlns="http://www.w3.org/2000/svg">
<circle cx="12" cy="12" r="12" fill="#CDD0D2"/>
<mask id="mask0_298_4784" style="mask-type:alpha" maskUnits="userSpaceOnUse" x="4" y="4" width="16" height="16">
<rect x="4" y="4" width="16" height="16" fill="#D9D9D9"/>
</mask>
<g mask="url(#mask0_298_4784)">
<path d="M16.1176 10.4737C16.6078 10.4737 17.0245 10.3048 17.3676 9.96711C17.7108 9.62939 17.8824 9.2193 17.8824 8.73684C17.8824 8.25439 17.7108 7.8443 17.3676 7.50658C17.0245 7.16886 16.6078 7 16.1176 7C15.6274 7 15.2108 7.16886 14.8676 7.50658C14.5245 7.8443 14.3529 8.25439 14.3529 8.73684C14.3529 9.2193 14.5245 9.62939 14.8676 9.96711C15.2108 10.3048 15.6274 10.4737 16.1176 10.4737ZM7.88235 10.4737C8.37255 10.4737 8.78921 10.3048 9.13235 9.96711C9.47549 9.62939 9.64706 9.2193 9.64706 8.73684C9.64706 8.25439 9.47549 7.8443 9.13235 7.50658C8.78921 7.16886 8.37255 7 7.88235 7C7.39216 7 6.97549 7.16886 6.63235 7.50658C6.28922 7.8443 6.11765 8.25439 6.11765 8.73684C6.11765 9.2193 6.28922 9.62939 6.63235 9.96711C6.97549 10.3048 7.39216 10.4737 7.88235 10.4737ZM12 18C13.3333 18 14.5441 17.6285 15.6324 16.8855C16.7206 16.1425 17.5098 15.1632 18 13.9474H6C6.4902 15.1632 7.27941 16.1425 8.36765 16.8855C9.45588 17.6285 10.6667 18 12 18Z" fill="white"/>
</g>
</svg>
