<svg id="vector" xmlns="http://www.w3.org/2000/svg" width="120.3" height="22.5" viewBox="0 0 120.3 22.5"><path fill="#FFFFFFFF" d="M14.8,16.6c-0.4,-0.1 -0.8,-0.1 -1.1,-0.1c-0.3,0 -0.7,0 -1.2,0.1c0.3,-0.4 0.4,-2 0.4,-4.7c0,-0.4 0,-0.9 0,-1.4c0,-0.6 0,-0.9 0,-1c0,-0.8 0,-1.4 0.1,-1.8C12.9,8 12.7,8.4 12.5,9c-0.2,0.4 -0.4,0.9 -0.6,1.3l-2.6,6.2H8.6l-2.2,-5.9c-0.2,-0.7 -0.6,-1.7 -1,-3c0.1,0.5 0.1,1.1 0.1,1.8c0,0.6 0,1.5 0,2.7c0,1.2 0,2.1 0,2.7c0,0.6 0.1,1.2 0.2,1.7c-0.4,0 -0.8,-0.1 -1,-0.1c-0.3,0 -0.6,0 -0.9,0.1c0.3,-0.8 0.5,-2.1 0.6,-3.9c0,-0.8 0.1,-2.2 0.1,-4c0,-1.3 -0.2,-2 -0.5,-2.3c0.6,0.1 1.1,0.1 1.4,0.1c0.3,0 0.7,0 1.4,-0.1C6.7,7.1 7,8.1 7.4,9.1c0.3,0.9 0.7,1.8 1,2.7c0.2,0.5 0.5,1.3 0.8,2.4c0.1,-0.4 0.3,-1 0.5,-1.5c0.2,-0.5 0.4,-1 0.7,-1.5c0.4,-0.8 0.7,-1.6 1,-2.4C11.8,7.9 12,7 12.2,6.3c0.4,0.1 0.7,0.1 1.1,0.1c0.4,0 0.9,0 1.4,-0.1c-0.2,0.6 -0.3,1.3 -0.4,2.2c0,1.3 0,2.8 0,4.5C14.4,14.9 14.5,16.1 14.8,16.6z" id="path_0"/><path fill="#FFFFFFFF" d="M22.9,12.5c0,1.2 -0.3,2.2 -0.9,3c-0.6,0.8 -1.6,1.2 -2.8,1.2c-1.2,0 -2.2,-0.4 -2.9,-1.1c-0.6,-0.7 -1,-1.7 -1,-2.9c0,-1.3 0.3,-2.3 0.9,-3c0.7,-0.8 1.6,-1.2 2.8,-1.2c1.2,0 2.2,0.4 2.8,1.1C22.5,10.3 22.9,11.3 22.9,12.5zM21.3,12.6c0,-2.1 -0.7,-3.2 -2.2,-3.2c-1.6,0 -2.4,1.1 -2.4,3.2c0,2.1 0.8,3.2 2.3,3.2C20.6,15.7 21.3,14.7 21.3,12.6z" id="path_1"/><path fill="#FFFFFFFF" d="M30.3,11.8c0,0.3 0,0.5 0,0.8h-5.2c0.2,2 1.1,3 2.9,3c0.9,0 1.6,-0.3 2.1,-0.8c-0.2,0.5 -0.3,1 -0.3,1.4c-0.7,0.2 -1.3,0.3 -2,0.3c-1.3,0 -2.3,-0.4 -3.1,-1.1c-0.7,-0.7 -1.1,-1.7 -1.1,-3c0,-1.2 0.3,-2.2 0.9,-2.9c0.6,-0.8 1.6,-1.1 2.7,-1.1c1,0 1.8,0.3 2.3,0.9C30.1,10 30.3,10.8 30.3,11.8zM28.8,11.8c0,-1.7 -0.6,-2.5 -1.7,-2.5c-1.2,0 -1.9,0.8 -2,2.5H28.8z" id="path_2"/><path fill="#FFFFFFFF" d="M40,14.2c0,1.6 -1,2.4 -3.1,2.4c-0.7,0 -1.4,-0.1 -2.2,-0.3c0.1,-0.4 0.2,-1 0.3,-1.5c0.5,0.6 1.2,0.8 2.1,0.8c1,0 1.5,-0.4 1.5,-1.2c0,-0.4 -0.1,-0.7 -0.4,-1c-0.2,-0.2 -0.5,-0.4 -0.9,-0.5c-0.3,-0.1 -0.5,-0.2 -0.5,-0.2c-0.2,0 -0.4,0 -0.5,0V12c0.5,-0.1 0.8,-0.1 0.8,-0.1c0.4,-0.1 0.6,-0.2 0.7,-0.4c0.3,-0.1 0.4,-0.4 0.4,-0.7v-0.3c0,-0.4 -0.2,-0.7 -0.5,-0.9c-0.3,-0.2 -0.6,-0.3 -1,-0.3c-0.7,0 -1.3,0.2 -1.6,0.7c-0.1,-0.4 -0.3,-0.9 -0.5,-1.3c0.6,-0.2 1.2,-0.4 1.9,-0.4c0.9,0 1.6,0.2 2.1,0.5c0.7,0.4 1,1 1,1.8c0,0.4 -0.1,0.7 -0.3,1c-0.1,0.2 -0.4,0.4 -0.7,0.7c0.1,0 0.3,0.1 0.5,0.2C39.8,13 40,13.5 40,14.2z" id="path_3"/><path fill="#FFFFFFFF" d="M48.1,17.5c-0.1,-0.1 -0.3,-0.1 -0.4,-0.1c-0.1,0 -0.2,0 -0.4,0c-0.2,0 -0.3,0 -0.4,0l-0.2,0c0,-0.2 0.1,-0.3 0.1,-0.4c0,-0.2 0,-0.4 -0.1,-0.6h-5.5c-0.1,0.2 -0.1,0.4 -0.1,0.6c0,0.1 0,0.3 0.1,0.4l-0.2,0c-0.1,0 -0.2,0 -0.4,0c-0.2,0 -0.3,0 -0.4,0c-0.2,0 -0.3,0 -0.4,0.1c0,-0.4 0.1,-0.7 0.2,-1.2c0.1,-0.6 0.3,-0.9 0.5,-0.9c0,0 0,0 0.1,0c0,0 0.1,0 0.1,0c0.1,0 0.1,0 0.2,-0.1c0,-0.3 0.1,-0.5 0.2,-0.8c0.6,-1.4 1.1,-2.8 1.5,-4.1c0.1,-0.3 0.2,-0.7 0.4,-1c0.1,-0.4 0.2,-0.8 0.2,-1c0.4,0 0.7,0.1 0.9,0.1c0.2,0 0.5,0 0.9,-0.1c0.4,1.3 0.9,2.9 1.7,5c0.1,0.4 0.4,1.1 0.7,1.9c0.1,0.1 0.3,0.1 0.5,0.1s0.4,0.3 0.5,0.8C48.1,16.5 48.1,16.9 48.1,17.5zM45.4,15.4c0,-0.3 0,-0.5 -0.1,-0.7c-0.4,-1.1 -0.9,-2.7 -1.6,-4.9c-0.1,0.6 -0.4,1.5 -0.9,2.8c-0.4,1.2 -0.7,2.1 -0.8,2.8H45.4z" id="path_4"/><path fill="#FFFFFFFF" d="M55.3,12.5c0,1.2 -0.3,2.2 -0.9,3c-0.6,0.8 -1.6,1.2 -2.8,1.2c-1.2,0 -2.2,-0.4 -2.9,-1.1c-0.6,-0.7 -1,-1.7 -1,-2.9c0,-1.3 0.3,-2.3 0.9,-3c0.7,-0.8 1.6,-1.2 2.8,-1.2c1.2,0 2.2,0.4 2.8,1.1C55,10.3 55.3,11.3 55.3,12.5zM53.8,12.6c0,-2.1 -0.7,-3.2 -2.2,-3.2c-1.6,0 -2.4,1.1 -2.4,3.2c0,2.1 0.8,3.2 2.3,3.2C53,15.7 53.8,14.7 53.8,12.6z" id="path_5"/><path fill="#FFFFFFFF" d="M63.3,12c0,1.3 -0.3,2.4 -1,3.2c-0.7,0.9 -1.8,1.4 -3,1.4c-0.3,0 -0.7,0 -1.2,-0.1c0,1.2 0,1.8 0,1.8c0,0.7 0.1,1.3 0.3,1.8c-0.5,0 -0.8,-0.1 -1,-0.1c-0.2,0 -0.6,0 -1,0.1c0.2,-0.7 0.3,-1.8 0.3,-3.3v-4.6c0,-1.9 -0.2,-3 -0.6,-3.4c0.7,0 1.3,-0.1 2,-0.4c0,0.6 -0.1,1.2 -0.1,1.9c0.2,-0.6 0.6,-1 1,-1.4s1,-0.5 1.6,-0.5c0.9,0 1.6,0.4 2.1,1.2C63.1,10.2 63.3,11.1 63.3,12zM61.9,12.6c0,-0.8 -0.1,-1.4 -0.4,-1.9c-0.3,-0.7 -0.8,-1 -1.5,-1c-0.9,0 -1.4,0.5 -1.7,1.5C58,11.7 58,12.6 58,13.7v1.6c0.5,0.2 1,0.3 1.5,0.3c0.8,0 1.5,-0.3 1.9,-0.9C61.7,14.2 61.9,13.4 61.9,12.6z" id="path_6"/><path fill="#FFFFFFFF" d="M71.6,12.5c0,1.2 -0.3,2.2 -0.9,3c-0.6,0.8 -1.6,1.2 -2.8,1.2c-1.2,0 -2.2,-0.4 -2.9,-1.1c-0.6,-0.7 -1,-1.7 -1,-2.9c0,-1.3 0.3,-2.3 0.9,-3c0.7,-0.8 1.6,-1.2 2.8,-1.2c1.2,0 2.2,0.4 2.8,1.1C71.2,10.3 71.6,11.3 71.6,12.5zM70,12.6c0,-2.1 -0.7,-3.2 -2.2,-3.2c-1.6,0 -2.4,1.1 -2.4,3.2c0,2.1 0.8,3.2 2.3,3.2C69.3,15.7 70,14.7 70,12.6z" id="path_7"/><path fill="#FFFFFFFF" d="M78.7,14.3c0,0.7 -0.2,1.2 -0.5,1.6c-0.5,0.4 -1,0.6 -1.6,0.6h-3.8l-0.2,0.1c0.1,-0.5 0.2,-1.1 0.2,-1.8c0,-0.1 0,-0.7 0,-1.9c0,-2.1 -0.1,-3.5 -0.3,-4.4h3.5c0.8,0 1.4,0.1 1.7,0.4c0.4,0.3 0.6,0.9 0.6,1.7c0,0.8 -0.5,1.4 -1.5,1.7c0.5,0.1 1,0.3 1.3,0.7C78.5,13.4 78.7,13.8 78.7,14.3zM77,10.8c0,-0.5 -0.2,-0.9 -0.6,-1.1c-0.3,-0.2 -0.7,-0.2 -1.3,-0.2c-0.1,0 -0.2,0 -0.4,0c-0.2,0 -0.3,0 -0.4,0v2.5l1.4,0C76.6,11.9 77,11.5 77,10.8zM77.3,14.4c0,-0.6 -0.2,-1 -0.7,-1.2c-0.3,-0.2 -0.8,-0.2 -1.4,-0.2c-0.1,0 -0.2,0 -0.5,0c-0.2,0 -0.4,0 -0.5,0v2.6c0.1,0 0.3,0 0.4,0c0.2,0 0.3,0 0.4,0C76.6,15.6 77.3,15.2 77.3,14.4z" id="path_8"/><path fill="#FFFFFFFF" d="M85.7,14.3c0,0.7 -0.2,1.2 -0.5,1.6c-0.5,0.4 -1,0.6 -1.6,0.6h-3.8l-0.2,0.1c0.1,-0.5 0.2,-1.1 0.2,-1.8c0,-0.1 0,-0.7 0,-1.9c0,-2.1 -0.1,-3.5 -0.3,-4.4l1.9,0l-0.2,0.9v2.5l1,0c0.7,0 1.4,0.1 2.1,0.4l-0.1,0C85.2,12.8 85.7,13.5 85.7,14.3zM84.3,14.4c0,-0.6 -0.2,-1 -0.7,-1.2c-0.3,-0.2 -0.8,-0.2 -1.4,-0.2c-0.1,0 -0.2,0 -0.5,0c-0.2,0 -0.4,0 -0.5,0v2.6c0.1,0 0.3,0 0.4,0c0.2,0 0.3,0 0.4,0C83.6,15.6 84.3,15.2 84.3,14.4z" id="path_9"/><path fill="#FFFFFFFF" d="M93,11.8c0,0.3 0,0.5 0,0.8h-5.2c0.2,2 1.1,3 2.9,3c0.9,0 1.6,-0.3 2.1,-0.8c-0.2,0.5 -0.3,1 -0.3,1.4c-0.7,0.2 -1.3,0.3 -2,0.3c-1.3,0 -2.3,-0.4 -3.1,-1.1s-1.1,-1.7 -1.1,-3c0,-1.2 0.3,-2.2 0.9,-2.9c0.6,-0.8 1.6,-1.1 2.7,-1.1c1,0 1.8,0.3 2.3,0.9C92.8,10 93,10.8 93,11.8zM91.5,11.8c0,-1.7 -0.6,-2.5 -1.7,-2.5c-1.2,0 -1.9,0.8 -2,2.5H91.5z" id="path_10"/><path fill="@color/white" d="M99.3,16.9c-0.6,1.4 -1.4,2.8 -1.6,4.2l0.8,-0.1c1.3,-3.7 2.4,-6.3 5,-9.4c1.9,-2.4 3.9,-4.2 6.6,-5.7c1.4,-0.8 3.2,-1.7 4.8,-1.9c0.4,-0.1 0.9,-0.1 1.3,0c-4.4,1.5 -8.7,4.1 -11.8,8.1c-1.3,1.6 -2.2,3.1 -3.3,5l1.5,0.3l-0.8,-0.4l2.8,-0.4c-1,-0.4 -2.1,-0.2 -2.4,-0.6c2.9,-0.1 5.3,-0.8 7,-2c-0.6,-0.1 -1.3,-0.2 -1.7,-0.3c2.8,-0.9 3.3,-1.7 5.3,-3.3c-2,0.5 -3.9,0.3 -4.7,-1c4.7,0.4 7.8,-1 8.8,-4.2c0.1,-0.4 0.1,-0.7 0.1,-1.1c-0.4,-2.4 -4.5,-3.1 -5.9,-1.2c-0.3,0.4 -0.7,0.7 -1,1.2l1.3,-2.4c-3.5,1.2 -3.8,2.5 -5.6,6.4c-0.6,-0.3 -0.7,-2 0.1,-2.9c-3.4,2.2 -5,5.5 -5.2,9.1c-0.8,-1.3 -0.3,-2.8 0.6,-4.6c-1.3,1.3 -2.1,2.8 -1.8,4.9l-0.6,-0.3l0.3,1.1l-0.9,-0.4L99.3,16.9L99.3,16.9z" fill-rule="evenodd" id="path_11"/></svg>