<svg width="24" height="24" viewBox="0 0 24 24" fill="none" xmlns="http://www.w3.org/2000/svg">
<mask id="mask0_98_4113" style="mask-type:alpha" maskUnits="userSpaceOnUse" x="0" y="0" width="24" height="24">
<rect width="24" height="24" fill="#D9D9D9"/>
</mask>
<g mask="url(#mask0_98_4113)">
<path d="M19 16.6923V12.75H5.00001V16.6923C5.00001 16.7692 5.03206 16.8397 5.09616 16.9038C5.16027 16.9679 5.2308 17 5.30773 17H18.6923C18.7692 17 18.8397 16.9679 18.9039 16.9038C18.968 16.8397 19 16.7692 19 16.6923ZM19 11.25V7.3077C19 7.23077 18.968 7.16024 18.9039 7.09613C18.8397 7.03203 18.7692 6.99998 18.6923 6.99998H5.30773C5.2308 6.99998 5.16027 7.03203 5.09616 7.09613C5.03206 7.16024 5.00001 7.23077 5.00001 7.3077V11.25H19ZM5.30773 18.5C4.8026 18.5 4.37503 18.325 4.02503 17.975C3.67503 17.625 3.50003 17.1974 3.50003 16.6923V7.3077C3.50003 6.80257 3.67503 6.375 4.02503 6.025C4.37503 5.675 4.8026 5.5 5.30773 5.5H18.6923C19.1974 5.5 19.625 5.675 19.975 6.025C20.325 6.375 20.5 6.80257 20.5 7.3077V16.6923C20.5 17.1974 20.325 17.625 19.975 17.975C19.625 18.325 19.1974 18.5 18.6923 18.5H5.30773Z" fill="black" fill-opacity="0.64"/>
</g>
</svg>
