<svg width="24" height="24" viewBox="0 0 24 24" fill="none" xmlns="http://www.w3.org/2000/svg">
<path d="M6 22C5.71667 22 5.47917 21.9042 5.2875 21.7125C5.09583 21.5208 5 21.2833 5 21C5 20.7167 5.09583 20.4792 5.2875 20.2875C5.47917 20.0958 5.71667 20 6 20H11V16H9C7.61667 16 6.4375 15.5125 5.4625 14.5375C4.4875 13.5625 4 12.3833 4 11C4 10 4.275 9.07917 4.825 8.2375C5.375 7.39583 6.11667 6.78333 7.05 6.4C7.2 5.15 7.74583 4.10417 8.6875 3.2625C9.62917 2.42083 10.7333 2 12 2C13.2667 2 14.3708 2.42083 15.3125 3.2625C16.2542 4.10417 16.8 5.15 16.95 6.4C17.8833 6.78333 18.625 7.39583 19.175 8.2375C19.725 9.07917 20 10 20 11C20 12.3833 19.5125 13.5625 18.5375 14.5375C17.5625 15.5125 16.3833 16 15 16H13V20H18C18.2833 20 18.5208 20.0958 18.7125 20.2875C18.9042 20.4792 19 20.7167 19 21C19 21.2833 18.9042 21.5208 18.7125 21.7125C18.5208 21.9042 18.2833 22 18 22H6ZM9 14H15C15.8333 14 16.5417 13.7083 17.125 13.125C17.7083 12.5417 18 11.8333 18 11C18 10.4 17.8292 9.85 17.4875 9.35C17.1458 8.85 16.7 8.48333 16.15 8.25L15.1 7.8L14.95 6.65C14.85 5.9 14.5208 5.27083 13.9625 4.7625C13.4042 4.25417 12.75 4 12 4C11.25 4 10.5958 4.25417 10.0375 4.7625C9.47917 5.27083 9.15 5.9 9.05 6.65L8.9 7.8L7.85 8.25C7.3 8.48333 6.85417 8.85 6.5125 9.35C6.17083 9.85 6 10.4 6 11C6 11.8333 6.29167 12.5417 6.875 13.125C7.45833 13.7083 8.16667 14 9 14Z" fill="#CDD0D2"/>
</svg>
