<svg width="17" height="16" viewBox="0 0 17 16" fill="none" xmlns="http://www.w3.org/2000/svg">
<mask id="mask0_68_1801" style="mask-type:alpha" maskUnits="userSpaceOnUse" x="0" y="0" width="17" height="16">
<rect x="0.5" width="16" height="16" fill="#D9D9D9"/>
</mask>
<g mask="url(#mask0_68_1801)">
<path d="M8.5 14.6666C7.58888 14.6666 6.72777 14.4916 5.91666 14.1416C5.10555 13.7916 4.39722 13.3138 3.79166 12.7083C3.18611 12.1027 2.70833 11.3944 2.35833 10.5833C2.00833 9.77214 1.83333 8.91103 1.83333 7.99992C1.83333 7.0777 2.00833 6.21381 2.35833 5.40825C2.70833 4.6027 3.18611 3.89714 3.79166 3.29159C4.39722 2.68603 5.10555 2.20825 5.91666 1.85825C6.72777 1.50825 7.58888 1.33325 8.5 1.33325C9.42222 1.33325 10.2861 1.50825 11.0917 1.85825C11.8972 2.20825 12.6028 2.68603 13.2083 3.29159C13.8139 3.89714 14.2917 4.6027 14.6417 5.40825C14.9917 6.21381 15.1667 7.0777 15.1667 7.99992C15.1667 8.91103 14.9917 9.77214 14.6417 10.5833C14.2917 11.3944 13.8139 12.1027 13.2083 12.7083C12.6028 13.3138 11.8972 13.7916 11.0917 14.1416C10.2861 14.4916 9.42222 14.6666 8.5 14.6666ZM8.5 10.6666C9.16666 10.6666 9.81666 10.7638 10.45 10.9583C11.0833 11.1527 11.6778 11.4333 12.2333 11.7999C12.7444 11.2888 13.1389 10.7083 13.4167 10.0583C13.6944 9.40825 13.8333 8.72214 13.8333 7.99992C13.8333 6.51103 13.3167 5.24992 12.2833 4.21659C11.25 3.18325 9.98888 2.66659 8.5 2.66659C7.01111 2.66659 5.75 3.18325 4.71666 4.21659C3.68333 5.24992 3.16666 6.51103 3.16666 7.99992C3.16666 8.72214 3.30277 9.41103 3.57499 10.0666C3.84722 10.7221 4.24444 11.2999 4.76666 11.7999C5.32222 11.4333 5.91666 11.1527 6.55 10.9583C7.18333 10.7638 7.83333 10.6666 8.5 10.6666ZM8.5 11.9999C8.04444 11.9999 7.6 12.0555 7.16666 12.1666C6.73333 12.2777 6.32222 12.4444 5.93333 12.6666C6.32222 12.8888 6.73333 13.0555 7.16666 13.1666C7.6 13.2777 8.04444 13.3333 8.5 13.3333C8.95555 13.3333 9.4 13.2777 9.83333 13.1666C10.2667 13.0555 10.6778 12.8888 11.0667 12.6666C10.6778 12.4444 10.2667 12.2777 9.83333 12.1666C9.4 12.0555 8.95555 11.9999 8.5 11.9999ZM5.16666 7.33325C5.35555 7.33325 5.51388 7.26936 5.64166 7.14159C5.76944 7.01381 5.83333 6.85547 5.83333 6.66659C5.83333 6.4777 5.76944 6.31936 5.64166 6.19159C5.51388 6.06381 5.35555 5.99992 5.16666 5.99992C4.97777 5.99992 4.81944 6.06381 4.69166 6.19159C4.56388 6.31936 4.49999 6.4777 4.49999 6.66659C4.49999 6.85547 4.56388 7.01381 4.69166 7.14159C4.81944 7.26936 4.97777 7.33325 5.16666 7.33325ZM7.16666 5.33325C7.35555 5.33325 7.51388 5.26936 7.64166 5.14159C7.76944 5.01381 7.83333 4.85547 7.83333 4.66659C7.83333 4.4777 7.76944 4.31936 7.64166 4.19159C7.51388 4.06381 7.35555 3.99992 7.16666 3.99992C6.97777 3.99992 6.81944 4.06381 6.69166 4.19159C6.56388 4.31936 6.5 4.4777 6.5 4.66659C6.5 4.85547 6.56388 5.01381 6.69166 5.14159C6.81944 5.26936 6.97777 5.33325 7.16666 5.33325ZM11.8333 7.33325C12.0222 7.33325 12.1806 7.26936 12.3083 7.14159C12.4361 7.01381 12.5 6.85547 12.5 6.66659C12.5 6.4777 12.4361 6.31936 12.3083 6.19159C12.1806 6.06381 12.0222 5.99992 11.8333 5.99992C11.6444 5.99992 11.4861 6.06381 11.3583 6.19159C11.2306 6.31936 11.1667 6.4777 11.1667 6.66659C11.1667 6.85547 11.2306 7.01381 11.3583 7.14159C11.4861 7.26936 11.6444 7.33325 11.8333 7.33325ZM8.5 9.33325C8.86666 9.33325 9.18055 9.2027 9.44166 8.94159C9.70277 8.68047 9.83333 8.36659 9.83333 7.99992C9.83333 7.85547 9.81111 7.71381 9.76666 7.57492C9.72222 7.43603 9.65555 7.31103 9.56666 7.19992L10.4667 4.93325C10.5444 4.75547 10.5472 4.58047 10.475 4.40825C10.4028 4.23603 10.2778 4.11103 10.1 4.03325C9.93333 3.95547 9.76388 3.9527 9.59166 4.02492C9.41944 4.09714 9.3 4.22214 9.23333 4.39992L8.33333 6.66659C8 6.72214 7.72222 6.87492 7.5 7.12492C7.27777 7.37492 7.16666 7.66659 7.16666 7.99992C7.16666 8.36659 7.29722 8.68047 7.55833 8.94159C7.81944 9.2027 8.13333 9.33325 8.5 9.33325Z" fill="#0A0905" fill-opacity="0.32"/>
</g>
</svg>
