<svg width="24" height="24" viewBox="0 0 24 24" fill="none" xmlns="http://www.w3.org/2000/svg">
<mask id="mask0_203_4069" style="mask-type:alpha" maskUnits="userSpaceOnUse" x="0" y="0" width="24" height="24">
<rect width="24" height="24" fill="#D9D9D9"/>
</mask>
<g mask="url(#mask0_203_4069)">
<path d="M12 6C11.45 6 10.9792 5.80417 10.5875 5.4125C10.1959 5.02083 10 4.55 10 4C10 3.45 10.1959 2.97917 10.5875 2.5875C10.9792 2.19583 11.45 2 12 2C12.55 2 13.0209 2.19583 13.4125 2.5875C13.8042 2.97917 14 3.45 14 4C14 4.55 13.8042 5.02083 13.4125 5.4125C13.0209 5.80417 12.55 6 12 6ZM20 8.25C19.2 8.43333 18.375 8.5875 17.525 8.7125C16.675 8.8375 15.8334 8.93333 15 9V21.025C15 21.3083 14.9042 21.5417 14.7125 21.725C14.5209 21.9083 14.2834 22 14 22C13.7167 22 13.4792 21.9042 13.2875 21.7125C13.0959 21.5208 13 21.2833 13 21V16H11V21.025C11 21.3083 10.9042 21.5417 10.7125 21.725C10.5209 21.9083 10.2834 22 10 22C9.71669 22 9.47919 21.9042 9.28753 21.7125C9.09586 21.5208 9.00003 21.2833 9.00003 21V9C8.16669 8.93333 7.32503 8.8375 6.47503 8.7125C5.62503 8.5875 4.80003 8.43333 4.00003 8.25C3.71669 8.18333 3.50003 8.02917 3.35003 7.7875C3.20003 7.54583 3.16669 7.28333 3.25003 7C3.31669 6.71667 3.47086 6.50417 3.71253 6.3625C3.95419 6.22083 4.21669 6.18333 4.50003 6.25C5.70003 6.51667 6.93753 6.70833 8.21253 6.825C9.48753 6.94167 10.75 7 12 7C13.25 7 14.5125 6.94167 15.7875 6.825C17.0625 6.70833 18.3 6.51667 19.5 6.25C19.7834 6.18333 20.0417 6.22083 20.275 6.3625C20.5084 6.50417 20.6667 6.71667 20.75 7C20.8167 7.28333 20.7792 7.54583 20.6375 7.7875C20.4959 8.02917 20.2834 8.18333 20 8.25Z" fill="#CDD0D2"/>
</g>
</svg>
