<svg width="48" height="48" viewBox="0 0 48 48" fill="none" xmlns="http://www.w3.org/2000/svg">
<circle cx="24" cy="24" r="24" fill="#B7BED3"/>
<mask id="mask0_13_769" style="mask-type:alpha" maskUnits="userSpaceOnUse" x="8" y="8" width="32" height="32">
<rect x="8" y="8" width="32" height="32" fill="#D9D9D9"/>
</mask>
<g mask="url(#mask0_13_769)">
<path d="M34.7353 19.9342C34.049 20.6096 33.2157 20.9474 32.2353 20.9474C31.2549 20.9474 30.4216 20.6096 29.7353 19.9342C29.049 19.2588 28.7059 18.4386 28.7059 17.4737C28.7059 16.5088 29.049 15.6886 29.7353 15.0132C30.4216 14.3377 31.2549 14 32.2353 14C33.2157 14 34.049 14.3377 34.7353 15.0132C35.4216 15.6886 35.7647 16.5088 35.7647 17.4737C35.7647 18.4386 35.4216 19.2588 34.7353 19.9342Z" fill="white"/>
<path d="M18.2647 19.9342C17.5784 20.6096 16.7451 20.9474 15.7647 20.9474C14.7843 20.9474 13.951 20.6096 13.2647 19.9342C12.5784 19.2588 12.2353 18.4386 12.2353 17.4737C12.2353 16.5088 12.5784 15.6886 13.2647 15.0132C13.951 14.3377 14.7843 14 15.7647 14C16.7451 14 17.5784 14.3377 18.2647 15.0132C18.951 15.6886 19.2941 16.5088 19.2941 17.4737C19.2941 18.4386 18.951 19.2588 18.2647 19.9342Z" fill="white"/>
<path d="M31.2647 33.771C29.0882 35.257 26.6667 36 24 36C21.3333 36 18.9118 35.257 16.7353 33.771C14.5588 32.2851 12.9804 30.3263 12 27.8947H15.8824C16.7451 29.3228 17.8922 30.4518 19.3235 31.2816C20.7549 32.1114 22.3137 32.5263 24 32.5263C25.6863 32.5263 27.2451 32.1114 28.6765 31.2816C30.1078 30.4518 31.2549 29.3228 32.1176 27.8947H36C35.0196 30.3263 33.4412 32.2851 31.2647 33.771Z" fill="white"/>
</g>
</svg>
