<svg width="48" height="48" viewBox="0 0 48 48" fill="none" xmlns="http://www.w3.org/2000/svg">
<circle cx="24" cy="24" r="24" fill="#34C759"/>
<mask id="mask0_13_767" style="mask-type:alpha" maskUnits="userSpaceOnUse" x="8" y="8" width="32" height="32">
<rect x="8" y="8" width="32" height="32" fill="#D9D9D9"/>
</mask>
<g mask="url(#mask0_13_767)">
<path d="M32.2353 20.9474C33.2157 20.9474 34.049 20.6096 34.7353 19.9342C35.4216 19.2588 35.7647 18.4386 35.7647 17.4737C35.7647 16.5088 35.4216 15.6886 34.7353 15.0132C34.049 14.3377 33.2157 14 32.2353 14C31.2549 14 30.4216 14.3377 29.7353 15.0132C29.049 15.6886 28.7059 16.5088 28.7059 17.4737C28.7059 18.4386 29.049 19.2588 29.7353 19.9342C30.4216 20.6096 31.2549 20.9474 32.2353 20.9474ZM15.7647 20.9474C16.7451 20.9474 17.5784 20.6096 18.2647 19.9342C18.951 19.2588 19.2941 18.4386 19.2941 17.4737C19.2941 16.5088 18.951 15.6886 18.2647 15.0132C17.5784 14.3377 16.7451 14 15.7647 14C14.7843 14 13.951 14.3377 13.2647 15.0132C12.5784 15.6886 12.2353 16.5088 12.2353 17.4737C12.2353 18.4386 12.5784 19.2588 13.2647 19.9342C13.951 20.6096 14.7843 20.9474 15.7647 20.9474ZM24 36C26.6667 36 29.0882 35.257 31.2647 33.7711C33.4412 32.2851 35.0196 30.3263 36 27.8947H12C12.9804 30.3263 14.5588 32.2851 16.7353 33.7711C18.9118 35.257 21.3333 36 24 36Z" fill="white"/>
</g>
</svg>
