<svg width="48" height="48" viewBox="0 0 48 48" fill="none" xmlns="http://www.w3.org/2000/svg">
<circle cx="24" cy="24" r="24" fill="#FF3B30"/>
<mask id="mask0_13_773" style="mask-type:alpha" maskUnits="userSpaceOnUse" x="8" y="8" width="32" height="32">
<rect x="8" y="8" width="32" height="32" fill="#D9D9D9"/>
</mask>
<g mask="url(#mask0_13_773)">
<path d="M34.7353 19.9792C34.049 20.6597 33.2157 21 32.2353 21C31.2549 21 30.4216 20.6597 29.7353 19.9792C29.049 19.2986 28.7059 18.4722 28.7059 17.5C28.7059 16.5278 29.049 15.7014 29.7353 15.0208C30.4216 14.3403 31.2549 14 32.2353 14C33.2157 14 34.049 14.3403 34.7353 15.0208C35.4216 15.7014 35.7647 16.5278 35.7647 17.5C35.7647 18.4722 35.4216 19.2986 34.7353 19.9792Z" fill="white"/>
<path d="M18.2647 19.9792C17.5784 20.6597 16.7451 21 15.7647 21C14.7843 21 13.951 20.6597 13.2647 19.9792C12.5784 19.2986 12.2353 18.4722 12.2353 17.5C12.2353 16.5278 12.5784 15.7014 13.2647 15.0208C13.951 14.3403 14.7843 14 15.7647 14C16.7451 14 17.5784 14.3403 18.2647 15.0208C18.951 15.7014 19.2941 16.5278 19.2941 17.5C19.2941 18.4722 18.951 19.2986 18.2647 19.9792Z" fill="white"/>
<path d="M16.7353 29.0792C18.9118 27.5819 21.3333 26.8333 24 26.8333C26.6667 26.8333 29.0882 27.5819 31.2647 29.0792C33.4412 30.5764 35.0196 32.55 36 35H12C12.9804 32.55 14.5588 30.5764 16.7353 29.0792Z" fill="white"/>
</g>
</svg>
