<svg width="16" height="16" viewBox="0 0 16 16" fill="none" xmlns="http://www.w3.org/2000/svg">
<mask id="mask0_68_1796" style="mask-type:alpha" maskUnits="userSpaceOnUse" x="0" y="0" width="16" height="16">
<rect width="16" height="16" fill="#D9D9D9"/>
</mask>
<g mask="url(#mask0_68_1796)">
<path d="M8 14.6666C7.07778 14.6666 6.29166 14.3416 5.64166 13.6916C4.99166 13.0416 4.66666 12.2555 4.66666 11.3333C4.66666 10.7999 4.78333 10.3027 5.01666 9.84159C5.25 9.38047 5.57778 8.98881 6 8.66659V3.33325C6 2.7777 6.19444 2.30547 6.58333 1.91659C6.97222 1.5277 7.44444 1.33325 8 1.33325C8.55555 1.33325 9.02777 1.5277 9.41666 1.91659C9.80555 2.30547 10 2.7777 10 3.33325V8.66659C10.4222 8.98881 10.75 9.38047 10.9833 9.84159C11.2167 10.3027 11.3333 10.7999 11.3333 11.3333C11.3333 12.2555 11.0083 13.0416 10.3583 13.6916C9.70833 14.3416 8.92222 14.6666 8 14.6666ZM7.33333 7.33325H8.66666V6.66659H8V5.99992H8.66666V4.66659H8V3.99992H8.66666V3.33325C8.66666 3.14436 8.60278 2.98603 8.475 2.85825C8.34722 2.73047 8.18889 2.66659 8 2.66659C7.81111 2.66659 7.65278 2.73047 7.525 2.85825C7.39722 2.98603 7.33333 3.14436 7.33333 3.33325V7.33325Z" fill="#0A0905" fill-opacity="0.32"/>
</g>
</svg>
