<svg width="16" height="16" viewBox="0 0 16 16" fill="none" xmlns="http://www.w3.org/2000/svg">
<mask id="mask0_68_1806" style="mask-type:alpha" maskUnits="userSpaceOnUse" x="0" y="0" width="16" height="16">
<rect width="16" height="16" fill="#D9D9D9"/>
</mask>
<g mask="url(#mask0_68_1806)">
<path d="M7.99999 14.6667C6.47777 14.6667 5.20832 14.1445 4.19166 13.1001C3.17499 12.0556 2.66666 10.7556 2.66666 9.20008C2.66666 8.51119 2.82221 7.8223 3.13332 7.13341C3.44443 6.44453 3.83332 5.78341 4.29999 5.15008C4.76666 4.51675 5.27221 3.9223 5.81666 3.36675C6.3611 2.81119 6.86666 2.32786 7.33332 1.91675C7.42221 1.82786 7.52499 1.76397 7.64166 1.72508C7.75832 1.68619 7.87777 1.66675 7.99999 1.66675C8.12221 1.66675 8.24166 1.68619 8.35832 1.72508C8.47499 1.76397 8.57777 1.82786 8.66666 1.91675C9.13332 2.32786 9.63888 2.81119 10.1833 3.36675C10.7278 3.9223 11.2333 4.51675 11.7 5.15008C12.1667 5.78341 12.5555 6.44453 12.8667 7.13341C13.1778 7.8223 13.3333 8.51119 13.3333 9.20008C13.3333 10.7556 12.825 12.0556 11.8083 13.1001C10.7917 14.1445 9.52221 14.6667 7.99999 14.6667ZM7.99999 13.3334C9.15555 13.3334 10.1111 12.9417 10.8667 12.1584C11.6222 11.3751 12 10.389 12 9.20008C12 8.38897 11.6639 7.4723 10.9917 6.45008C10.3194 5.42786 9.32221 4.31119 7.99999 3.10008C6.67777 4.31119 5.68055 5.42786 5.00832 6.45008C4.3361 7.4723 3.99999 8.38897 3.99999 9.20008C3.99999 10.389 4.37777 11.3751 5.13332 12.1584C5.88888 12.9417 6.84443 13.3334 7.99999 13.3334ZM8.18332 12.6667C8.31666 12.6556 8.43055 12.6029 8.52499 12.5084C8.61943 12.414 8.66666 12.3001 8.66666 12.1667C8.66666 12.0112 8.61666 11.8862 8.51666 11.7917C8.41666 11.6973 8.28888 11.6556 8.13332 11.6667C7.67777 11.7001 7.19443 11.5751 6.68332 11.2917C6.17221 11.0084 5.84999 10.4945 5.71666 9.75008C5.69443 9.62786 5.6361 9.52786 5.54166 9.45008C5.44721 9.3723 5.33888 9.33342 5.21666 9.33342C5.0611 9.33342 4.93332 9.39175 4.83332 9.50841C4.73332 9.62508 4.69999 9.76119 4.73332 9.91675C4.92221 10.9279 5.36666 11.6501 6.06666 12.0834C6.76666 12.5167 7.47221 12.7112 8.18332 12.6667Z" fill="#0A0905" fill-opacity="0.32"/>
</g>
</svg>
