<svg width="364" height="364" viewBox="0 0 364 364" fill="none" xmlns="http://www.w3.org/2000/svg">
<g clip-path="url(#clip0_7164_22164)">
<g filter="url(#filter0_i_7164_22164)">
<path fill-rule="evenodd" clip-rule="evenodd" d="M182.682 363.999C182.455 364 182.227 364 182 364C181.772 364 181.545 364 181.318 363.999H182.682ZM360.861 181.999C362.609 181.999 364.029 180.569 363.999 178.821C362.303 79.7717 281.469 0 182 0C82.5314 0 1.69717 79.7717 0.000465051 178.821C-0.02948 180.569 1.39059 181.999 3.13896 181.999H102.858C104.606 181.999 106.017 180.577 106.089 178.83C107.751 138.346 141.101 106.035 182 106.035C222.898 106.035 256.249 138.346 257.911 178.83C257.983 180.577 259.394 181.999 261.142 181.999H360.861Z" fill="url(#paint0_linear_7164_22164)"/>
</g>
<g filter="url(#filter1_d_7164_22164)">
<path fill-rule="evenodd" clip-rule="evenodd" d="M239.833 95.5803C239.919 94.043 238.308 92.9903 236.934 93.6853L195.799 114.495C191.187 113.515 186.404 113 181.5 113C143.668 113 113 143.669 113 181.5C113 219.332 143.668 250 181.5 250C219.332 250 250 219.332 250 181.5C250 166.672 245.288 152.944 237.281 141.732L239.833 95.5803Z" fill="white"/>
</g>
<path d="M155.52 172.33C153.936 172.33 152.58 171.985 151.45 171.296C150.321 170.599 149.452 169.631 148.843 168.392C148.242 167.153 147.941 165.715 147.941 164.08C147.941 162.445 148.242 161.007 148.843 159.768C149.452 158.529 150.321 157.564 151.45 156.875C152.58 156.178 153.936 155.83 155.52 155.83C157.104 155.83 158.461 156.178 159.59 156.875C160.727 157.564 161.596 158.529 162.197 159.768C162.806 161.007 163.11 162.445 163.11 164.08C163.11 165.715 162.806 167.153 162.197 168.392C161.596 169.631 160.727 170.599 159.59 171.296C158.461 171.985 157.104 172.33 155.52 172.33ZM155.52 169.833C156.584 169.84 157.467 169.606 158.171 169.129C158.883 168.652 159.414 167.981 159.766 167.116C160.126 166.251 160.305 165.239 160.305 164.08C160.305 162.921 160.126 161.917 159.766 161.066C159.414 160.208 158.883 159.541 158.171 159.064C157.467 158.587 156.584 158.342 155.52 158.327C154.457 158.32 153.573 158.554 152.869 159.031C152.165 159.508 151.634 160.179 151.274 161.044C150.922 161.909 150.746 162.921 150.746 164.08C150.746 165.239 150.922 166.247 151.274 167.105C151.626 167.956 152.154 168.619 152.858 169.096C153.57 169.573 154.457 169.818 155.52 169.833ZM168.676 172V158.646H163.55V156.16H176.453V158.646H171.327V172H168.676ZM182.216 156.16H184.878L180.654 172H177.992L182.216 156.16ZM194.428 172.33C192.844 172.33 191.488 171.985 190.358 171.296C189.229 170.599 188.36 169.631 187.751 168.392C187.15 167.153 186.849 165.715 186.849 164.08C186.849 162.445 187.15 161.007 187.751 159.768C188.36 158.529 189.229 157.564 190.358 156.875C191.488 156.178 192.844 155.83 194.428 155.83C196.012 155.83 197.369 156.178 198.498 156.875C199.635 157.564 200.504 158.529 201.105 159.768C201.714 161.007 202.018 162.445 202.018 164.08C202.018 165.715 201.714 167.153 201.105 168.392C200.504 169.631 199.635 170.599 198.498 171.296C197.369 171.985 196.012 172.33 194.428 172.33ZM194.428 169.833C195.492 169.84 196.375 169.606 197.079 169.129C197.791 168.652 198.322 167.981 198.674 167.116C199.034 166.251 199.213 165.239 199.213 164.08C199.213 162.921 199.034 161.917 198.674 161.066C198.322 160.208 197.791 159.541 197.079 159.064C196.375 158.587 195.492 158.342 194.428 158.327C193.365 158.32 192.481 158.554 191.777 159.031C191.073 159.508 190.542 160.179 190.182 161.044C189.83 161.909 189.654 162.921 189.654 164.08C189.654 165.239 189.83 166.247 190.182 167.105C190.534 167.956 191.062 168.619 191.766 169.096C192.478 169.573 193.365 169.818 194.428 169.833ZM204.208 172V156.16H214.801V158.646H206.859V162.056H210.753C210.9 162.056 211.094 162.063 211.336 162.078C211.585 162.085 211.813 162.1 212.018 162.122C212.905 162.225 213.646 162.507 214.24 162.969C214.841 163.431 215.292 164.014 215.593 164.718C215.901 165.422 216.055 166.192 216.055 167.028C216.055 167.864 215.905 168.638 215.604 169.349C215.303 170.053 214.852 170.636 214.251 171.098C213.657 171.553 212.913 171.831 212.018 171.934C211.813 171.956 211.589 171.974 211.347 171.989C211.105 171.996 210.907 172 210.753 172H204.208ZM206.859 169.514H210.643C210.79 169.514 210.955 169.507 211.138 169.492C211.321 169.477 211.49 169.455 211.644 169.426C212.304 169.287 212.759 168.979 213.008 168.502C213.257 168.025 213.382 167.534 213.382 167.028C213.382 166.515 213.257 166.023 213.008 165.554C212.759 165.077 212.304 164.769 211.644 164.63C211.49 164.593 211.321 164.571 211.138 164.564C210.955 164.549 210.79 164.542 210.643 164.542H206.859V169.514Z" fill="black"/>
<path d="M139.853 196H138.817V187.733L133.266 196H132.23V185.92H133.266V194.18L138.817 185.92H139.853V196ZM141.807 196V188.44H142.836V191.723H147.099V188.44H148.128V196H147.099V192.71H142.836V196H141.807ZM149.525 197.68V195.118C149.955 195.118 150.263 194.98 150.449 194.705C150.636 194.425 150.788 193.979 150.904 193.368C150.984 192.971 151.049 192.544 151.1 192.087C151.152 191.63 151.196 191.107 151.233 190.519C151.271 189.926 151.306 189.233 151.338 188.44H156.336V195.118H157.064V197.68H156.07V196H150.512V197.68H149.525ZM151.268 195.118H155.314V189.322H152.29C152.276 189.677 152.255 190.052 152.227 190.449C152.204 190.846 152.174 191.242 152.136 191.639C152.104 192.036 152.064 192.409 152.017 192.759C151.975 193.104 151.924 193.408 151.863 193.669C151.793 194.005 151.716 194.292 151.632 194.53C151.553 194.768 151.432 194.964 151.268 195.118ZM161.665 196.21C160.928 196.21 160.289 196.047 159.747 195.72C159.211 195.393 158.793 194.934 158.494 194.341C158.196 193.748 158.046 193.053 158.046 192.255C158.046 191.429 158.193 190.715 158.487 190.113C158.781 189.511 159.194 189.047 159.726 188.72C160.263 188.393 160.895 188.23 161.623 188.23C162.37 188.23 163.007 188.403 163.534 188.748C164.062 189.089 164.461 189.579 164.731 190.218C165.002 190.857 165.126 191.62 165.102 192.507H164.052V192.143C164.034 191.163 163.821 190.423 163.415 189.924C163.014 189.425 162.426 189.175 161.651 189.175C160.839 189.175 160.216 189.439 159.782 189.966C159.353 190.493 159.138 191.245 159.138 192.22C159.138 193.172 159.353 193.912 159.782 194.439C160.216 194.962 160.83 195.223 161.623 195.223C162.165 195.223 162.636 195.099 163.037 194.852C163.443 194.6 163.763 194.238 163.996 193.767L164.955 194.138C164.657 194.796 164.216 195.307 163.632 195.671C163.054 196.03 162.398 196.21 161.665 196.21ZM158.774 192.507V191.646H164.549V192.507H158.774ZM166.649 196L166.656 188.44H167.692V192.08L171.066 188.44H172.438L168.896 192.22L172.9 196H171.402L167.692 192.36V196H166.649ZM176.6 196.21C175.84 196.21 175.196 196.04 174.668 195.699C174.141 195.358 173.74 194.889 173.464 194.292C173.194 193.69 173.054 192.999 173.044 192.22C173.054 191.427 173.198 190.731 173.478 190.134C173.758 189.532 174.162 189.065 174.689 188.734C175.217 188.398 175.856 188.23 176.607 188.23C177.373 188.23 178.038 188.417 178.602 188.79C179.172 189.163 179.561 189.674 179.771 190.323L178.763 190.645C178.586 190.192 178.304 189.842 177.916 189.595C177.534 189.343 177.095 189.217 176.6 189.217C176.045 189.217 175.585 189.345 175.221 189.602C174.857 189.854 174.587 190.206 174.409 190.659C174.232 191.112 174.141 191.632 174.136 192.22C174.146 193.125 174.356 193.853 174.766 194.404C175.177 194.95 175.788 195.223 176.6 195.223C177.114 195.223 177.55 195.106 177.909 194.873C178.273 194.635 178.549 194.29 178.735 193.837L179.771 194.145C179.491 194.817 179.081 195.33 178.539 195.685C177.998 196.035 177.352 196.21 176.6 196.21ZM187.176 196.21C186.425 196.21 185.783 196.04 185.251 195.699C184.719 195.358 184.311 194.887 184.026 194.285C183.741 193.683 183.599 192.992 183.599 192.213C183.599 191.42 183.744 190.724 184.033 190.127C184.322 189.53 184.733 189.065 185.265 188.734C185.802 188.398 186.439 188.23 187.176 188.23C187.932 188.23 188.576 188.4 189.108 188.741C189.645 189.077 190.053 189.546 190.333 190.148C190.618 190.745 190.76 191.434 190.76 192.213C190.76 193.006 190.618 193.704 190.333 194.306C190.048 194.903 189.638 195.37 189.101 195.706C188.564 196.042 187.923 196.21 187.176 196.21ZM187.176 195.223C188.016 195.223 188.641 194.945 189.052 194.39C189.463 193.83 189.668 193.104 189.668 192.213C189.668 191.298 189.46 190.57 189.045 190.029C188.634 189.488 188.011 189.217 187.176 189.217C186.611 189.217 186.145 189.345 185.776 189.602C185.412 189.854 185.139 190.206 184.957 190.659C184.78 191.107 184.691 191.625 184.691 192.213C184.691 193.123 184.901 193.853 185.321 194.404C185.741 194.95 186.359 195.223 187.176 195.223ZM195.335 196.217C194.631 196.212 194.026 196.058 193.522 195.755C193.018 195.452 192.626 194.999 192.346 194.397C192.071 193.795 191.922 193.044 191.898 192.143C191.884 191.746 191.894 191.315 191.926 190.848C191.959 190.377 192.01 189.929 192.08 189.504C192.15 189.079 192.234 188.734 192.332 188.468C192.454 188.123 192.626 187.801 192.85 187.502C193.079 187.199 193.343 186.951 193.641 186.76C193.931 186.564 194.257 186.412 194.621 186.305C194.99 186.193 195.373 186.107 195.769 186.046C196.171 185.985 196.567 185.932 196.959 185.885C197.356 185.838 197.722 185.78 198.058 185.71L198.17 186.641C197.914 186.692 197.61 186.739 197.26 186.781C196.91 186.823 196.544 186.874 196.161 186.935C195.779 186.991 195.412 187.068 195.062 187.166C194.712 187.264 194.414 187.392 194.166 187.551C193.788 187.78 193.497 188.125 193.291 188.587C193.091 189.049 192.967 189.579 192.92 190.176C193.21 189.723 193.592 189.383 194.068 189.154C194.549 188.925 195.069 188.811 195.629 188.811C196.311 188.811 196.896 188.967 197.386 189.28C197.881 189.593 198.261 190.027 198.527 190.582C198.793 191.137 198.926 191.774 198.926 192.493C198.926 193.244 198.779 193.9 198.485 194.46C198.196 195.02 197.783 195.454 197.246 195.762C196.71 196.065 196.073 196.217 195.335 196.217ZM195.412 195.23C196.206 195.23 196.808 194.983 197.218 194.488C197.634 193.993 197.841 193.335 197.841 192.514C197.841 191.674 197.627 191.011 197.197 190.526C196.773 190.041 196.173 189.798 195.398 189.798C194.624 189.798 194.029 190.041 193.613 190.526C193.198 191.011 192.99 191.674 192.99 192.514C192.99 193.354 193.198 194.017 193.613 194.502C194.029 194.987 194.628 195.23 195.412 195.23ZM200.802 196L200.795 189.322H199.766V188.44H201.831V191.289H203.595C203.815 191.289 204.029 191.294 204.239 191.303C204.454 191.312 204.645 191.331 204.813 191.359C205.182 191.429 205.511 191.553 205.8 191.73C206.094 191.907 206.325 192.152 206.493 192.465C206.661 192.778 206.745 193.17 206.745 193.641C206.745 194.29 206.577 194.801 206.241 195.174C205.905 195.547 205.483 195.79 204.974 195.902C204.783 195.944 204.575 195.972 204.351 195.986C204.127 195.995 203.908 196 203.693 196H200.802ZM201.831 195.118H203.651C203.805 195.118 203.98 195.113 204.176 195.104C204.372 195.095 204.545 195.069 204.694 195.027C204.942 194.957 205.168 194.817 205.373 194.607C205.579 194.392 205.681 194.07 205.681 193.641C205.681 193.216 205.583 192.897 205.387 192.682C205.191 192.463 204.93 192.318 204.603 192.248C204.454 192.215 204.295 192.194 204.127 192.185C203.964 192.176 203.805 192.171 203.651 192.171H201.831V195.118ZM211.486 196.21C210.748 196.21 210.109 196.047 209.568 195.72C209.031 195.393 208.613 194.934 208.315 194.341C208.016 193.748 207.867 193.053 207.867 192.255C207.867 191.429 208.014 190.715 208.308 190.113C208.602 189.511 209.015 189.047 209.547 188.72C210.083 188.393 210.716 188.23 211.444 188.23C212.19 188.23 212.827 188.403 213.355 188.748C213.882 189.089 214.281 189.579 214.552 190.218C214.822 190.857 214.946 191.62 214.923 192.507H213.873V192.143C213.854 191.163 213.642 190.423 213.236 189.924C212.834 189.425 212.246 189.175 211.472 189.175C210.66 189.175 210.037 189.439 209.603 189.966C209.173 190.493 208.959 191.245 208.959 192.22C208.959 193.172 209.173 193.912 209.603 194.439C210.037 194.962 210.65 195.223 211.444 195.223C211.985 195.223 212.456 195.099 212.858 194.852C213.264 194.6 213.583 194.238 213.817 193.767L214.776 194.138C214.477 194.796 214.036 195.307 213.453 195.671C212.874 196.03 212.218 196.21 211.486 196.21ZM208.595 192.507V191.646H214.37V192.507H208.595ZM216.264 196V188.44H217.181L220.128 194.628L223.082 188.44H223.992V196H222.998V190.638L220.457 196H219.806L217.265 190.638V196H216.264ZM228.114 196.21C227.544 196.21 227.066 196.107 226.679 195.902C226.296 195.697 226.009 195.424 225.818 195.083C225.626 194.742 225.531 194.371 225.531 193.97C225.531 193.559 225.612 193.209 225.776 192.92C225.944 192.626 226.17 192.386 226.455 192.199C226.744 192.012 227.078 191.87 227.456 191.772C227.838 191.679 228.261 191.597 228.723 191.527C229.189 191.452 229.644 191.389 230.088 191.338C230.536 191.282 230.928 191.228 231.264 191.177L230.9 191.401C230.914 190.654 230.769 190.101 230.466 189.742C230.162 189.383 229.635 189.203 228.884 189.203C228.366 189.203 227.927 189.32 227.568 189.553C227.213 189.786 226.963 190.155 226.819 190.659L225.818 190.365C225.99 189.688 226.338 189.163 226.861 188.79C227.383 188.417 228.062 188.23 228.898 188.23C229.588 188.23 230.174 188.361 230.655 188.622C231.14 188.879 231.483 189.252 231.684 189.742C231.777 189.961 231.838 190.206 231.866 190.477C231.894 190.748 231.908 191.023 231.908 191.303V196H230.991V194.103L231.257 194.215C231 194.864 230.601 195.358 230.06 195.699C229.518 196.04 228.87 196.21 228.114 196.21ZM228.233 195.321C228.713 195.321 229.133 195.235 229.493 195.062C229.852 194.889 230.141 194.654 230.361 194.355C230.58 194.052 230.722 193.711 230.788 193.333C230.844 193.09 230.874 192.824 230.879 192.535C230.883 192.241 230.886 192.022 230.886 191.877L231.278 192.08C230.928 192.127 230.547 192.173 230.137 192.22C229.731 192.267 229.329 192.32 228.933 192.381C228.541 192.442 228.186 192.514 227.869 192.598C227.654 192.659 227.446 192.745 227.246 192.857C227.045 192.964 226.879 193.109 226.749 193.291C226.623 193.473 226.56 193.699 226.56 193.97C226.56 194.189 226.613 194.402 226.721 194.607C226.833 194.812 227.01 194.983 227.253 195.118C227.5 195.253 227.827 195.321 228.233 195.321ZM141.021 213V206.392H138.34V205.44H144.731V206.392H142.05V213H141.021ZM147.942 213.21C147.372 213.21 146.894 213.107 146.507 212.902C146.124 212.697 145.837 212.424 145.646 212.083C145.454 211.742 145.359 211.371 145.359 210.97C145.359 210.559 145.44 210.209 145.604 209.92C145.772 209.626 145.998 209.386 146.283 209.199C146.572 209.012 146.906 208.87 147.284 208.772C147.666 208.679 148.089 208.597 148.551 208.527C149.017 208.452 149.472 208.389 149.916 208.338C150.364 208.282 150.756 208.228 151.092 208.177L150.728 208.401C150.742 207.654 150.597 207.101 150.294 206.742C149.99 206.383 149.463 206.203 148.712 206.203C148.194 206.203 147.755 206.32 147.396 206.553C147.041 206.786 146.791 207.155 146.647 207.659L145.646 207.365C145.818 206.688 146.166 206.163 146.689 205.79C147.211 205.417 147.89 205.23 148.726 205.23C149.416 205.23 150.002 205.361 150.483 205.622C150.968 205.879 151.311 206.252 151.512 206.742C151.605 206.961 151.666 207.206 151.694 207.477C151.722 207.748 151.736 208.023 151.736 208.303V213H150.819V211.103L151.085 211.215C150.828 211.864 150.429 212.358 149.888 212.699C149.346 213.04 148.698 213.21 147.942 213.21ZM148.061 212.321C148.541 212.321 148.961 212.235 149.321 212.062C149.68 211.889 149.969 211.654 150.189 211.355C150.408 211.052 150.55 210.711 150.616 210.333C150.672 210.09 150.702 209.824 150.707 209.535C150.711 209.241 150.714 209.022 150.714 208.877L151.106 209.08C150.756 209.127 150.375 209.173 149.965 209.22C149.559 209.267 149.157 209.32 148.761 209.381C148.369 209.442 148.014 209.514 147.697 209.598C147.482 209.659 147.274 209.745 147.074 209.857C146.873 209.964 146.707 210.109 146.577 210.291C146.451 210.473 146.388 210.699 146.388 210.97C146.388 211.189 146.441 211.402 146.549 211.607C146.661 211.812 146.838 211.983 147.081 212.118C147.328 212.253 147.655 212.321 148.061 212.321ZM152.858 213V212.097C153.138 212.148 153.35 212.137 153.495 212.062C153.644 211.983 153.754 211.852 153.824 211.67C153.894 211.483 153.952 211.252 153.999 210.977C154.074 210.52 154.141 210.016 154.202 209.465C154.263 208.914 154.316 208.308 154.363 207.645C154.414 206.978 154.466 206.243 154.517 205.44H159.655V213H158.633V206.427H155.469C155.436 206.922 155.399 207.414 155.357 207.904C155.315 208.394 155.271 208.865 155.224 209.318C155.182 209.766 155.135 210.179 155.084 210.557C155.033 210.935 154.979 211.262 154.923 211.537C154.839 211.952 154.727 212.284 154.587 212.531C154.452 212.778 154.249 212.942 153.978 213.021C153.707 213.1 153.334 213.093 152.858 213ZM167.617 205.44V213H166.616V207.113L162.472 213H161.604V205.44H162.605V211.278L166.756 205.44H167.617ZM175.588 205.44V213H174.587V207.113L170.443 213H169.575V205.44H170.576V211.278L174.727 205.44H175.588ZM182.903 202.92H183.96L181.272 213H180.215L182.903 202.92ZM188.814 213.217C188.109 213.212 187.505 213.058 187.001 212.755C186.497 212.452 186.105 211.999 185.825 211.397C185.549 210.795 185.4 210.044 185.377 209.143C185.363 208.746 185.372 208.315 185.405 207.848C185.437 207.377 185.489 206.929 185.559 206.504C185.629 206.079 185.713 205.734 185.811 205.468C185.932 205.123 186.105 204.801 186.329 204.502C186.557 204.199 186.821 203.951 187.12 203.76C187.409 203.564 187.736 203.412 188.1 203.305C188.468 203.193 188.851 203.107 189.248 203.046C189.649 202.985 190.046 202.932 190.438 202.885C190.834 202.838 191.201 202.78 191.537 202.71L191.649 203.641C191.392 203.692 191.089 203.739 190.739 203.781C190.389 203.823 190.022 203.874 189.64 203.935C189.257 203.991 188.891 204.068 188.541 204.166C188.191 204.264 187.892 204.392 187.645 204.551C187.267 204.78 186.975 205.125 186.77 205.587C186.569 206.049 186.445 206.579 186.399 207.176C186.688 206.723 187.071 206.383 187.547 206.154C188.027 205.925 188.548 205.811 189.108 205.811C189.789 205.811 190.375 205.967 190.865 206.28C191.359 206.593 191.74 207.027 192.006 207.582C192.272 208.137 192.405 208.774 192.405 209.493C192.405 210.244 192.258 210.9 191.964 211.46C191.674 212.02 191.261 212.454 190.725 212.762C190.188 213.065 189.551 213.217 188.814 213.217ZM188.891 212.23C189.684 212.23 190.286 211.983 190.697 211.488C191.112 210.993 191.32 210.335 191.32 209.514C191.32 208.674 191.105 208.011 190.676 207.526C190.251 207.041 189.651 206.798 188.877 206.798C188.102 206.798 187.507 207.041 187.092 207.526C186.676 208.011 186.469 208.674 186.469 209.514C186.469 210.354 186.676 211.017 187.092 211.502C187.507 211.987 188.107 212.23 188.891 212.23ZM197.144 213.21C196.407 213.21 195.767 213.047 195.226 212.72C194.689 212.393 194.272 211.934 193.973 211.341C193.674 210.748 193.525 210.053 193.525 209.255C193.525 208.429 193.672 207.715 193.966 207.113C194.26 206.511 194.673 206.047 195.205 205.72C195.742 205.393 196.374 205.23 197.102 205.23C197.849 205.23 198.486 205.403 199.013 205.748C199.54 206.089 199.939 206.579 200.21 207.218C200.481 207.857 200.604 208.62 200.581 209.507H199.531V209.143C199.512 208.163 199.3 207.423 198.894 206.924C198.493 206.425 197.905 206.175 197.13 206.175C196.318 206.175 195.695 206.439 195.261 206.966C194.832 207.493 194.617 208.245 194.617 209.22C194.617 210.172 194.832 210.912 195.261 211.439C195.695 211.962 196.309 212.223 197.102 212.223C197.643 212.223 198.115 212.099 198.516 211.852C198.922 211.6 199.242 211.238 199.475 210.767L200.434 211.138C200.135 211.796 199.694 212.307 199.111 212.671C198.532 213.03 197.877 213.21 197.144 213.21ZM194.253 209.507V208.646H200.028V209.507H194.253ZM201.574 214.68V212.118C202.004 212.118 202.312 211.98 202.498 211.705C202.685 211.425 202.837 210.979 202.953 210.368C203.033 209.971 203.098 209.544 203.149 209.087C203.201 208.63 203.245 208.107 203.282 207.519C203.32 206.926 203.355 206.233 203.387 205.44H208.385V212.118H209.113V214.68H208.119V213H202.561V214.68H201.574ZM203.317 212.118H207.363V206.322H204.339C204.325 206.677 204.304 207.052 204.276 207.449C204.253 207.846 204.223 208.242 204.185 208.639C204.153 209.036 204.113 209.409 204.066 209.759C204.024 210.104 203.973 210.408 203.912 210.669C203.842 211.005 203.765 211.292 203.681 211.53C203.602 211.768 203.481 211.964 203.317 212.118ZM213.714 213.21C212.977 213.21 212.337 213.047 211.796 212.72C211.259 212.393 210.842 211.934 210.543 211.341C210.244 210.748 210.095 210.053 210.095 209.255C210.095 208.429 210.242 207.715 210.536 207.113C210.83 206.511 211.243 206.047 211.775 205.72C212.312 205.393 212.944 205.23 213.672 205.23C214.419 205.23 215.056 205.403 215.583 205.748C216.11 206.089 216.509 206.579 216.78 207.218C217.051 207.857 217.174 208.62 217.151 209.507H216.101V209.143C216.082 208.163 215.87 207.423 215.464 206.924C215.063 206.425 214.475 206.175 213.7 206.175C212.888 206.175 212.265 206.439 211.831 206.966C211.402 207.493 211.187 208.245 211.187 209.22C211.187 210.172 211.402 210.912 211.831 211.439C212.265 211.962 212.879 212.223 213.672 212.223C214.213 212.223 214.685 212.099 215.086 211.852C215.492 211.6 215.812 211.238 216.045 210.767L217.004 211.138C216.705 211.796 216.264 212.307 215.681 212.671C215.102 213.03 214.447 213.21 213.714 213.21ZM210.823 209.507V208.646H216.598V209.507H210.823ZM222.1 213.21C221.404 213.21 220.816 213.035 220.336 212.685C219.855 212.33 219.491 211.852 219.244 211.25C218.996 210.643 218.873 209.964 218.873 209.213C218.873 208.448 218.996 207.766 219.244 207.169C219.496 206.567 219.864 206.093 220.35 205.748C220.835 205.403 221.432 205.23 222.142 205.23C222.832 205.23 223.425 205.405 223.92 205.755C224.414 206.105 224.792 206.581 225.054 207.183C225.32 207.785 225.453 208.462 225.453 209.213C225.453 209.969 225.32 210.648 225.054 211.25C224.788 211.852 224.405 212.33 223.906 212.685C223.406 213.035 222.804 213.21 222.1 213.21ZM218.698 216.36V205.44H219.622V211.131H219.734V216.36H218.698ZM221.995 212.251C222.522 212.251 222.961 212.118 223.311 211.852C223.661 211.586 223.922 211.224 224.095 210.767C224.272 210.305 224.361 209.787 224.361 209.213C224.361 208.644 224.274 208.13 224.102 207.673C223.929 207.216 223.665 206.854 223.311 206.588C222.961 206.322 222.515 206.189 221.974 206.189C221.446 206.189 221.008 206.317 220.658 206.574C220.312 206.831 220.053 207.188 219.881 207.645C219.708 208.098 219.622 208.62 219.622 209.213C219.622 209.796 219.708 210.319 219.881 210.781C220.053 211.238 220.315 211.598 220.665 211.859C221.015 212.12 221.458 212.251 221.995 212.251Z" fill="#5C5C5C"/>
</g>
<defs>
<filter id="filter0_i_7164_22164" x="0" y="0" width="364" height="366" filterUnits="userSpaceOnUse" color-interpolation-filters="sRGB">
<feFlood flood-opacity="0" result="BackgroundImageFix"/>
<feBlend mode="normal" in="SourceGraphic" in2="BackgroundImageFix" result="shape"/>
<feColorMatrix in="SourceAlpha" type="matrix" values="0 0 0 0 0 0 0 0 0 0 0 0 0 0 0 0 0 0 127 0" result="hardAlpha"/>
<feOffset dy="2"/>
<feGaussianBlur stdDeviation="8"/>
<feComposite in2="hardAlpha" operator="arithmetic" k2="-1" k3="1"/>
<feColorMatrix type="matrix" values="0 0 0 0 0 0 0 0 0 0 0 0 0 0 0 0 0 0 0.1 0"/>
<feBlend mode="normal" in2="shape" result="effect1_innerShadow_7164_22164"/>
</filter>
<filter id="filter1_d_7164_22164" x="105" y="86.4668" width="153" height="172.533" filterUnits="userSpaceOnUse" color-interpolation-filters="sRGB">
<feFlood flood-opacity="0" result="BackgroundImageFix"/>
<feColorMatrix in="SourceAlpha" type="matrix" values="0 0 0 0 0 0 0 0 0 0 0 0 0 0 0 0 0 0 127 0" result="hardAlpha"/>
<feOffset dy="1"/>
<feGaussianBlur stdDeviation="4"/>
<feComposite in2="hardAlpha" operator="out"/>
<feColorMatrix type="matrix" values="0 0 0 0 0 0 0 0 0 0 0 0 0 0 0 0 0 0 0.1 0"/>
<feBlend mode="normal" in2="BackgroundImageFix" result="effect1_dropShadow_7164_22164"/>
<feBlend mode="normal" in="SourceGraphic" in2="effect1_dropShadow_7164_22164" result="shape"/>
</filter>
<linearGradient id="paint0_linear_7164_22164" x1="5.42604e-06" y1="182" x2="364" y2="182" gradientUnits="userSpaceOnUse">
<stop stop-color="#3BAEB1"/>
<stop offset="0.148932" stop-color="#42BC65"/>
<stop offset="0.302083" stop-color="#76C931"/>
<stop offset="0.5" stop-color="#E7DE1C"/>
<stop offset="0.708333" stop-color="#F1960D"/>
<stop offset="0.859375" stop-color="#EC5B0A"/>
<stop offset="1" stop-color="#ED280D"/>
</linearGradient>
<clipPath id="clip0_7164_22164">
<rect width="364" height="364" fill="white"/>
</clipPath>
</defs>
</svg>
